%TF.GenerationSoftware,KiCad,Pcbnew,10.0.5*%
%TF.CreationDate,2026-08-13T15:32:45+09:00*%
%TF.ProjectId,rear_node_board,72656172-5f6e-46f6-9465-5f626f617264,rev?*%
%TF.SameCoordinates,Original*%
%TF.FileFunction,Soldermask,Bot*%
%TF.FilePolarity,Negative*%
%FSLAX46Y46*%
G04 Gerber Fmt 4.6, Leading zero omitted, Abs format (unit mm)*
G04 Created by KiCad (PCBNEW 10.0.5) date 2026-08-13 15:32:45*
%MOMM*%
%LPD*%
G01*
G04 APERTURE LIST*
G04 Aperture macros list*
%AMRoundRect*
0 Rectangle with rounded corners*
0 $1 Rounding radius*
0 $2 $3 $4 $5 $6 $7 $8 $9 X,Y pos of 4 corners*
0 Add a 4 corners polygon primitive as box body*
4,1,4,$2,$3,$4,$5,$6,$7,$8,$9,$2,$3,0*
0 Add four circle primitives for the rounded corners*
1,1,$1+$1,$2,$3*
1,1,$1+$1,$4,$5*
1,1,$1+$1,$6,$7*
1,1,$1+$1,$8,$9*
0 Add four rect primitives between the rounded corners*
20,1,$1+$1,$2,$3,$4,$5,0*
20,1,$1+$1,$4,$5,$6,$7,0*
20,1,$1+$1,$6,$7,$8,$9,0*
20,1,$1+$1,$8,$9,$2,$3,0*%
G04 Aperture macros list end*
%ADD10C,1.700000*%
%ADD11R,1.700000X1.700000*%
%ADD12R,1.500000X1.500000*%
%ADD13C,1.500000*%
%ADD14RoundRect,0.250000X-1.050000X1.050000X-1.050000X-1.050000X1.050000X-1.050000X1.050000X1.050000X0*%
%ADD15C,2.600000*%
%ADD16R,1.800000X1.800000*%
%ADD17C,1.800000*%
%ADD18C,2.000000*%
G04 APERTURE END LIST*
D10*
%TO.C,front2*%
X260100000Y-145370000D03*
X260100000Y-147910000D03*
X260100000Y-150450000D03*
X260100000Y-152990000D03*
X260100000Y-155530000D03*
D11*
X260100000Y-158070000D03*
%TD*%
D12*
%TO.C,VR1*%
X118600000Y-103150000D03*
D13*
X121100000Y-100650000D03*
X123600000Y-103150000D03*
%TD*%
D11*
%TO.C,DHT1*%
X99035000Y-125500000D03*
D10*
X101575000Y-125500000D03*
X104115000Y-125500000D03*
%TD*%
D11*
%TO.C,ADC_BRAKE1*%
X132050000Y-81025000D03*
D10*
X132050000Y-83565000D03*
%TD*%
D11*
%TO.C,ACCEL1*%
X118400000Y-80725000D03*
D10*
X118400000Y-83265000D03*
%TD*%
D11*
%TO.C,J6*%
X190100000Y-104325000D03*
D10*
X190100000Y-106865000D03*
X190100000Y-109405000D03*
X190100000Y-111945000D03*
X190100000Y-114485000D03*
X190100000Y-117025000D03*
%TD*%
D11*
%TO.C,J8*%
X113500000Y-144000000D03*
D10*
X113500000Y-146540000D03*
X113500000Y-149080000D03*
%TD*%
D11*
%TO.C,J5*%
X151500000Y-81000000D03*
D10*
X151500000Y-83540000D03*
X151500000Y-86080000D03*
%TD*%
D11*
%TO.C,J7*%
X207875000Y-104300000D03*
D10*
X207875000Y-106840000D03*
X207875000Y-109380000D03*
X207875000Y-111920000D03*
X207875000Y-114460000D03*
X207875000Y-117000000D03*
%TD*%
D11*
%TO.C,J2*%
X75500000Y-86460000D03*
D10*
X75500000Y-89000000D03*
X75500000Y-91540000D03*
X75500000Y-94080000D03*
X75500000Y-96620000D03*
X75500000Y-99160000D03*
%TD*%
D11*
%TO.C,J11*%
X207690000Y-79500000D03*
D10*
X210230000Y-79500000D03*
X212770000Y-79500000D03*
X215310000Y-79500000D03*
%TD*%
D14*
%TO.C,J1*%
X75327500Y-173455000D03*
D15*
X75327500Y-178535000D03*
%TD*%
D11*
%TO.C,J3*%
X75500000Y-110150000D03*
D10*
X75500000Y-112690000D03*
X75500000Y-115230000D03*
X75500000Y-117770000D03*
X75500000Y-120310000D03*
X75500000Y-122850000D03*
%TD*%
D16*
%TO.C,D3*%
X267960000Y-95000000D03*
D17*
X270500000Y-95000000D03*
%TD*%
D16*
%TO.C,D5*%
X267960000Y-124500000D03*
D17*
X270500000Y-124500000D03*
%TD*%
D11*
%TO.C,J4*%
X75500000Y-132960000D03*
D10*
X75500000Y-135500000D03*
X75500000Y-138040000D03*
X75500000Y-140580000D03*
X75500000Y-143120000D03*
X75500000Y-145660000D03*
%TD*%
D16*
%TO.C,D2*%
X267460000Y-80000000D03*
D17*
X270000000Y-80000000D03*
%TD*%
D16*
%TO.C,D4*%
X267960000Y-110000000D03*
D17*
X270500000Y-110000000D03*
%TD*%
D11*
%TO.C,J9*%
X269500000Y-143960000D03*
D10*
X269500000Y-146500000D03*
X269500000Y-149040000D03*
%TD*%
D18*
%TO.C,SW1*%
X247500000Y-78000000D03*
X254000000Y-78000000D03*
X247500000Y-82500000D03*
X254000000Y-82500000D03*
%TD*%
D11*
%TO.C,J10*%
X75500000Y-155000000D03*
D10*
X75500000Y-157540000D03*
X75500000Y-160080000D03*
%TD*%
D16*
%TO.C,D1*%
X91635000Y-82425000D03*
D17*
X94175000Y-82425000D03*
%TD*%
M02*
