%TF.GenerationSoftware,KiCad,Pcbnew,10.0.5*%
%TF.CreationDate,2026-08-13T15:32:45+09:00*%
%TF.ProjectId,rear_node_board,72656172-5f6e-46f6-9465-5f626f617264,rev?*%
%TF.SameCoordinates,Original*%
%TF.FileFunction,Copper,L1,Top*%
%TF.FilePolarity,Positive*%
%FSLAX46Y46*%
G04 Gerber Fmt 4.6, Leading zero omitted, Abs format (unit mm)*
G04 Created by KiCad (PCBNEW 10.0.5) date 2026-08-13 15:32:45*
%MOMM*%
%LPD*%
G01*
G04 APERTURE LIST*
G04 Aperture macros list*
%AMRoundRect*
0 Rectangle with rounded corners*
0 $1 Rounding radius*
0 $2 $3 $4 $5 $6 $7 $8 $9 X,Y pos of 4 corners*
0 Add a 4 corners polygon primitive as box body*
4,1,4,$2,$3,$4,$5,$6,$7,$8,$9,$2,$3,0*
0 Add four circle primitives for the rounded corners*
1,1,$1+$1,$2,$3*
1,1,$1+$1,$4,$5*
1,1,$1+$1,$6,$7*
1,1,$1+$1,$8,$9*
0 Add four rect primitives between the rounded corners*
20,1,$1+$1,$2,$3,$4,$5,0*
20,1,$1+$1,$4,$5,$6,$7,0*
20,1,$1+$1,$6,$7,$8,$9,0*
20,1,$1+$1,$8,$9,$2,$3,0*%
G04 Aperture macros list end*
%TA.AperFunction,SMDPad,CuDef*%
%ADD10RoundRect,0.250000X-0.450000X0.262500X-0.450000X-0.262500X0.450000X-0.262500X0.450000X0.262500X0*%
%TD*%
%TA.AperFunction,SMDPad,CuDef*%
%ADD11RoundRect,0.250000X0.325000X0.650000X-0.325000X0.650000X-0.325000X-0.650000X0.325000X-0.650000X0*%
%TD*%
%TA.AperFunction,SMDPad,CuDef*%
%ADD12RoundRect,0.250000X0.650000X-0.325000X0.650000X0.325000X-0.650000X0.325000X-0.650000X-0.325000X0*%
%TD*%
%TA.AperFunction,SMDPad,CuDef*%
%ADD13RoundRect,0.250000X-0.650000X0.325000X-0.650000X-0.325000X0.650000X-0.325000X0.650000X0.325000X0*%
%TD*%
%TA.AperFunction,SMDPad,CuDef*%
%ADD14RoundRect,0.075000X-0.910000X-0.225000X0.910000X-0.225000X0.910000X0.225000X-0.910000X0.225000X0*%
%TD*%
%TA.AperFunction,SMDPad,CuDef*%
%ADD15RoundRect,0.250000X-0.550000X1.050000X-0.550000X-1.050000X0.550000X-1.050000X0.550000X1.050000X0*%
%TD*%
%TA.AperFunction,SMDPad,CuDef*%
%ADD16RoundRect,0.250000X-1.050000X-0.550000X1.050000X-0.550000X1.050000X0.550000X-1.050000X0.550000X0*%
%TD*%
%TA.AperFunction,SMDPad,CuDef*%
%ADD17RoundRect,0.250000X0.262500X0.450000X-0.262500X0.450000X-0.262500X-0.450000X0.262500X-0.450000X0*%
%TD*%
%TA.AperFunction,ComponentPad*%
%ADD18C,1.700000*%
%TD*%
%TA.AperFunction,ComponentPad*%
%ADD19R,1.700000X1.700000*%
%TD*%
%TA.AperFunction,ComponentPad*%
%ADD20R,1.500000X1.500000*%
%TD*%
%TA.AperFunction,ComponentPad*%
%ADD21C,1.500000*%
%TD*%
%TA.AperFunction,SMDPad,CuDef*%
%ADD22RoundRect,0.250000X-0.262500X-0.450000X0.262500X-0.450000X0.262500X0.450000X-0.262500X0.450000X0*%
%TD*%
%TA.AperFunction,SMDPad,CuDef*%
%ADD23RoundRect,0.250000X0.450000X-0.262500X0.450000X0.262500X-0.450000X0.262500X-0.450000X-0.262500X0*%
%TD*%
%TA.AperFunction,SMDPad,CuDef*%
%ADD24RoundRect,0.075000X-0.700000X-0.075000X0.700000X-0.075000X0.700000X0.075000X-0.700000X0.075000X0*%
%TD*%
%TA.AperFunction,SMDPad,CuDef*%
%ADD25RoundRect,0.075000X-0.075000X-0.700000X0.075000X-0.700000X0.075000X0.700000X-0.075000X0.700000X0*%
%TD*%
%TA.AperFunction,ComponentPad*%
%ADD26RoundRect,0.250000X-1.050000X1.050000X-1.050000X-1.050000X1.050000X-1.050000X1.050000X1.050000X0*%
%TD*%
%TA.AperFunction,ComponentPad*%
%ADD27C,2.600000*%
%TD*%
%TA.AperFunction,SMDPad,CuDef*%
%ADD28RoundRect,0.250000X-0.325000X-0.650000X0.325000X-0.650000X0.325000X0.650000X-0.325000X0.650000X0*%
%TD*%
%TA.AperFunction,SMDPad,CuDef*%
%ADD29RoundRect,0.250000X1.050000X0.550000X-1.050000X0.550000X-1.050000X-0.550000X1.050000X-0.550000X0*%
%TD*%
%TA.AperFunction,ComponentPad*%
%ADD30R,1.800000X1.800000*%
%TD*%
%TA.AperFunction,ComponentPad*%
%ADD31C,1.800000*%
%TD*%
%TA.AperFunction,SMDPad,CuDef*%
%ADD32RoundRect,0.225000X0.225000X0.250000X-0.225000X0.250000X-0.225000X-0.250000X0.225000X-0.250000X0*%
%TD*%
%TA.AperFunction,ComponentPad*%
%ADD33C,2.000000*%
%TD*%
%TA.AperFunction,SMDPad,CuDef*%
%ADD34RoundRect,0.225000X-0.225000X-0.250000X0.225000X-0.250000X0.225000X0.250000X-0.225000X0.250000X0*%
%TD*%
%TA.AperFunction,SMDPad,CuDef*%
%ADD35R,1.250000X1.600000*%
%TD*%
%TA.AperFunction,SMDPad,CuDef*%
%ADD36RoundRect,0.375000X-0.625000X-0.375000X0.625000X-0.375000X0.625000X0.375000X-0.625000X0.375000X0*%
%TD*%
%TA.AperFunction,SMDPad,CuDef*%
%ADD37RoundRect,0.500000X-0.500000X-1.400000X0.500000X-1.400000X0.500000X1.400000X-0.500000X1.400000X0*%
%TD*%
%TA.AperFunction,ViaPad*%
%ADD38C,0.600000*%
%TD*%
%TA.AperFunction,Conductor*%
%ADD39C,0.200000*%
%TD*%
%TA.AperFunction,Conductor*%
%ADD40C,0.300000*%
%TD*%
%TA.AperFunction,Conductor*%
%ADD41C,0.800000*%
%TD*%
%TA.AperFunction,Conductor*%
%ADD42C,0.400000*%
%TD*%
%TA.AperFunction,Conductor*%
%ADD43C,0.500000*%
%TD*%
G04 APERTURE END LIST*
D10*
%TO.P,R28,1*%
%TO.N,GND*%
X208575000Y-133492500D03*
%TO.P,R28,2*%
%TO.N,/ADC_BRAKE*%
X208575000Y-135317500D03*
%TD*%
D11*
%TO.P,C30,1*%
%TO.N,/ADC_ACCEL*%
X217100000Y-142350000D03*
%TO.P,C30,2*%
%TO.N,GND*%
X214150000Y-142350000D03*
%TD*%
D12*
%TO.P,C12,1*%
%TO.N,+3.3V*%
X226700000Y-104275000D03*
%TO.P,C12,2*%
%TO.N,GND*%
X226700000Y-101325000D03*
%TD*%
D13*
%TO.P,C32,1*%
%TO.N,+3.3V*%
X142900000Y-121950000D03*
%TO.P,C32,2*%
%TO.N,GND*%
X142900000Y-124900000D03*
%TD*%
D12*
%TO.P,C29,1*%
%TO.N,+3.3V*%
X225150000Y-120125000D03*
%TO.P,C29,2*%
%TO.N,GND*%
X225150000Y-117175000D03*
%TD*%
D13*
%TO.P,C10,1*%
%TO.N,+3.3V*%
X146100000Y-110950000D03*
%TO.P,C10,2*%
%TO.N,GND*%
X146100000Y-113900000D03*
%TD*%
D12*
%TO.P,C5,2*%
%TO.N,GND*%
X145550000Y-134225000D03*
%TO.P,C5,1*%
%TO.N,+3.3V*%
X145550000Y-137175000D03*
%TD*%
D14*
%TO.P,U13,8,RS_8*%
%TO.N,GND*%
X151000000Y-117190000D03*
%TO.P,U13,7,CANH_7*%
%TO.N,/CANH_1*%
X151000000Y-118460000D03*
%TO.P,U13,6,CANL_6*%
%TO.N,/CANL_1*%
X151000000Y-119730000D03*
%TO.P,U13,5,VREF_5*%
%TO.N,unconnected-(U13-VREF-Pad5)*%
X151000000Y-121000000D03*
%TO.P,U13,4,R_4*%
%TO.N,/F446_CAN1_RX*%
X146060000Y-121000000D03*
%TO.P,U13,3,VCC_3*%
%TO.N,+3.3V*%
X146060000Y-119730000D03*
%TO.P,U13,2,GND_2*%
%TO.N,GND*%
X146060000Y-118460000D03*
%TO.P,U13,1,D_1*%
%TO.N,/F446_CAN1_TX*%
X146060000Y-117190000D03*
%TD*%
D13*
%TO.P,C3,1*%
%TO.N,/ND_NRST*%
X217600000Y-149925000D03*
%TO.P,C3,2*%
%TO.N,GND*%
X217600000Y-152875000D03*
%TD*%
D15*
%TO.P,C21,2*%
%TO.N,GND*%
X223800000Y-157400000D03*
%TO.P,C21,1*%
%TO.N,3.3VA_2*%
X223800000Y-153800000D03*
%TD*%
D12*
%TO.P,C16,2*%
%TO.N,GND*%
X227300000Y-138225000D03*
%TO.P,C16,1*%
%TO.N,+3.3V*%
X227300000Y-141175000D03*
%TD*%
%TO.P,C15,2*%
%TO.N,GND*%
X229550000Y-132925000D03*
%TO.P,C15,1*%
%TO.N,+3.3V*%
X229550000Y-135875000D03*
%TD*%
D15*
%TO.P,C22,2*%
%TO.N,GND*%
X238900000Y-157650000D03*
%TO.P,C22,1*%
%TO.N,/ND_VCAP1*%
X238900000Y-154050000D03*
%TD*%
D16*
%TO.P,C9,1*%
%TO.N,/RB_VCAP1*%
X158300000Y-156550000D03*
%TO.P,C9,2*%
%TO.N,GND*%
X161900000Y-156550000D03*
%TD*%
D17*
%TO.P,R22,2*%
%TO.N,/ACT_IN1*%
X253200000Y-153180000D03*
%TO.P,R22,1*%
%TO.N,Net-(front2-Pin_3)*%
X255025000Y-153180000D03*
%TD*%
%TO.P,R23,2*%
%TO.N,/ACT_ENB*%
X253175000Y-156300000D03*
%TO.P,R23,1*%
%TO.N,Net-(front2-Pin_2)*%
X255000000Y-156300000D03*
%TD*%
%TO.P,R24,2*%
%TO.N,/ACT_ENA*%
X253200000Y-159080000D03*
%TO.P,R24,1*%
%TO.N,Net-(front2-Pin_1)*%
X255025000Y-159080000D03*
%TD*%
%TO.P,R19,2*%
%TO.N,/ACT_IN4*%
X253200000Y-144180000D03*
%TO.P,R19,1*%
%TO.N,Net-(front2-Pin_6)*%
X255025000Y-144180000D03*
%TD*%
D18*
%TO.P,front2,6,Pin_6_6*%
%TO.N,Net-(front2-Pin_6)*%
X260100000Y-145370000D03*
%TO.P,front2,5,Pin_5_5*%
%TO.N,Net-(front2-Pin_5)*%
X260100000Y-147910000D03*
%TO.P,front2,4,Pin_4_4*%
%TO.N,Net-(front2-Pin_4)*%
X260100000Y-150450000D03*
%TO.P,front2,3,Pin_3_3*%
%TO.N,Net-(front2-Pin_3)*%
X260100000Y-152990000D03*
%TO.P,front2,2,Pin_2_2*%
%TO.N,Net-(front2-Pin_2)*%
X260100000Y-155530000D03*
D19*
%TO.P,front2,1,Pin_1_1*%
%TO.N,Net-(front2-Pin_1)*%
X260100000Y-158070000D03*
%TD*%
D17*
%TO.P,R20,2*%
%TO.N,/ACT_IN3*%
X253200000Y-146930000D03*
%TO.P,R20,1*%
%TO.N,Net-(front2-Pin_5)*%
X255025000Y-146930000D03*
%TD*%
%TO.P,R21,2*%
%TO.N,/ACT_IN2*%
X253200000Y-150230000D03*
%TO.P,R21,1*%
%TO.N,Net-(front2-Pin_4)*%
X255025000Y-150230000D03*
%TD*%
D11*
%TO.P,C31,2*%
%TO.N,GND*%
X197350000Y-147000000D03*
%TO.P,C31,1*%
%TO.N,/ADC_STEER*%
X200300000Y-147000000D03*
%TD*%
D20*
%TO.P,VR1,1,CCW_1*%
%TO.N,+3.3V*%
X118600000Y-103150000D03*
D21*
%TO.P,VR1,2,WIPER_2*%
%TO.N,/ADC_STEER*%
X121100000Y-100650000D03*
%TO.P,VR1,3,CW_3*%
%TO.N,GND*%
X123600000Y-103150000D03*
%TD*%
D22*
%TO.P,R29,1*%
%TO.N,GND*%
X120475000Y-89250000D03*
%TO.P,R29,2*%
%TO.N,/ADC_ACCEL*%
X122300000Y-89250000D03*
%TD*%
D19*
%TO.P,DHT1,1,Pin_1_1*%
%TO.N,/DHT11_DATA*%
X99035000Y-125500000D03*
D18*
%TO.P,DHT1,2,Pin_2_2*%
%TO.N,+3.3V*%
X101575000Y-125500000D03*
%TO.P,DHT1,3,Pin_3_3*%
%TO.N,GND*%
X104115000Y-125500000D03*
%TD*%
D19*
%TO.P,ADC_BRAKE1,1,Pin_1_1*%
%TO.N,+3.3V*%
X132050000Y-81025000D03*
D18*
%TO.P,ADC_BRAKE1,2,Pin_2_2*%
%TO.N,/ADC_BRAKE*%
X132050000Y-83565000D03*
%TD*%
D19*
%TO.P,ACCEL1,1,Pin_1_1*%
%TO.N,+3.3V*%
X118400000Y-80725000D03*
D18*
%TO.P,ACCEL1,2,Pin_2_2*%
%TO.N,/ADC_ACCEL*%
X118400000Y-83265000D03*
%TD*%
D12*
%TO.P,C11,1*%
%TO.N,+3.3V*%
X155150000Y-137550000D03*
%TO.P,C11,2*%
%TO.N,GND*%
X155150000Y-134600000D03*
%TD*%
D22*
%TO.P,R2,1*%
%TO.N,/RB_BOOT0*%
X163500000Y-139000000D03*
%TO.P,R2,2*%
%TO.N,GND*%
X165325000Y-139000000D03*
%TD*%
%TO.P,R15,1*%
%TO.N,/US_ECHO*%
X213500000Y-88500000D03*
%TO.P,R15,2*%
%TO.N,GND*%
X215325000Y-88500000D03*
%TD*%
%TO.P,R10,1*%
%TO.N,/LED_LEFT*%
X268175000Y-87500000D03*
%TO.P,R10,2*%
%TO.N,Net-(D2-A)*%
X270000000Y-87500000D03*
%TD*%
D14*
%TO.P,U11,1,D_1*%
%TO.N,/F446_CAN2_TX*%
X232030000Y-117595000D03*
%TO.P,U11,2,GND_2*%
%TO.N,GND*%
X232030000Y-118865000D03*
%TO.P,U11,3,VCC_3*%
%TO.N,+3.3V*%
X232030000Y-120135000D03*
%TO.P,U11,4,R_4*%
%TO.N,/F446_CAN2_RX*%
X232030000Y-121405000D03*
%TO.P,U11,5,VREF_5*%
%TO.N,unconnected-(U11-VREF-Pad5)*%
X236970000Y-121405000D03*
%TO.P,U11,6,CANL_6*%
%TO.N,/CANL_2*%
X236970000Y-120135000D03*
%TO.P,U11,7,CANH_7*%
%TO.N,/CANH_2*%
X236970000Y-118865000D03*
%TO.P,U11,8,RS_8*%
%TO.N,GND*%
X236970000Y-117595000D03*
%TD*%
D19*
%TO.P,J6,1,Pin_1_1*%
%TO.N,unconnected-(J6-Pin_1-Pad1)*%
X190100000Y-104325000D03*
D18*
%TO.P,J6,2,Pin_2_2*%
%TO.N,unconnected-(J6-Pin_2-Pad2)*%
X190100000Y-106865000D03*
%TO.P,J6,3,Pin_3_3*%
%TO.N,unconnected-(J6-Pin_3-Pad3)*%
X190100000Y-109405000D03*
%TO.P,J6,4,Pin_4_4*%
%TO.N,/BNO_RST*%
X190100000Y-111945000D03*
%TO.P,J6,5,Pin_5_5*%
%TO.N,unconnected-(J6-Pin_5-Pad5)*%
X190100000Y-114485000D03*
%TO.P,J6,6,Pin_6_6*%
%TO.N,unconnected-(J6-Pin_6-Pad6)*%
X190100000Y-117025000D03*
%TD*%
D14*
%TO.P,U10,1,D_1*%
%TO.N,/H723_FDCAN2_TX*%
X233060000Y-99690000D03*
%TO.P,U10,2,GND_2*%
%TO.N,GND*%
X233060000Y-100960000D03*
%TO.P,U10,3,VCC_3*%
%TO.N,+3.3V*%
X233060000Y-102230000D03*
%TO.P,U10,4,R_4*%
%TO.N,/H723_FDCAN2_RX*%
X233060000Y-103500000D03*
%TO.P,U10,5,VREF_5*%
%TO.N,unconnected-(U10-VREF-Pad5)*%
X238000000Y-103500000D03*
%TO.P,U10,6,CANL_6*%
%TO.N,/CANL_2*%
X238000000Y-102230000D03*
%TO.P,U10,7,CANH_7*%
%TO.N,/CANH_2*%
X238000000Y-100960000D03*
%TO.P,U10,8,RS_8*%
%TO.N,GND*%
X238000000Y-99690000D03*
%TD*%
D13*
%TO.P,C18,1*%
%TO.N,+3.3V*%
X243650000Y-151050000D03*
%TO.P,C18,2*%
%TO.N,GND*%
X243650000Y-154000000D03*
%TD*%
%TO.P,C17,1*%
%TO.N,+3.3V*%
X233050000Y-153550000D03*
%TO.P,C17,2*%
%TO.N,GND*%
X233050000Y-156500000D03*
%TD*%
D19*
%TO.P,J8,1,Pin_1_1*%
%TO.N,/UART_TX_1*%
X113500000Y-144000000D03*
D18*
%TO.P,J8,2,Pin_2_2*%
%TO.N,/UART_RX_1*%
X113500000Y-146540000D03*
%TO.P,J8,3,Pin_3_3*%
%TO.N,GND*%
X113500000Y-149080000D03*
%TD*%
D22*
%TO.P,R7,1*%
%TO.N,/PB2_1*%
X150950000Y-156450000D03*
%TO.P,R7,2*%
%TO.N,GND*%
X152775000Y-156450000D03*
%TD*%
D23*
%TO.P,R14,1*%
%TO.N,+3.3V*%
X103762500Y-83337500D03*
%TO.P,R14,2*%
%TO.N,Net-(D1-A)*%
X103762500Y-81512500D03*
%TD*%
D16*
%TO.P,C1,1*%
%TO.N,VCC*%
X87700000Y-176500000D03*
%TO.P,C1,2*%
%TO.N,GND*%
X91300000Y-176500000D03*
%TD*%
D19*
%TO.P,J5,1,Pin_1_1*%
%TO.N,/CANH_1*%
X151500000Y-81000000D03*
D18*
%TO.P,J5,2,Pin_2_2*%
%TO.N,/CANL_1*%
X151500000Y-83540000D03*
%TO.P,J5,3,Pin_3_3*%
%TO.N,GND*%
X151500000Y-86080000D03*
%TD*%
D19*
%TO.P,J7,1,Pin_1_1*%
%TO.N,/BNO_INT*%
X207875000Y-104300000D03*
D18*
%TO.P,J7,2,Pin_2_2*%
%TO.N,/I2C1_SDA*%
X207875000Y-106840000D03*
%TO.P,J7,3,Pin_3_3*%
%TO.N,/I2C1_SCL*%
X207875000Y-109380000D03*
%TO.P,J7,4,Pin_4_4*%
%TO.N,GND*%
X207875000Y-111920000D03*
%TO.P,J7,5,Pin_5_5*%
%TO.N,unconnected-(J7-Pin_5-Pad5)*%
X207875000Y-114460000D03*
%TO.P,J7,6,Pin_6_6*%
%TO.N,+3.3V*%
X207875000Y-117000000D03*
%TD*%
D19*
%TO.P,J2,1,Pin_1_1*%
%TO.N,/H723_FDCAN1_TX*%
X75500000Y-86460000D03*
D18*
%TO.P,J2,2,Pin_2_2*%
%TO.N,/H723_FDCAN1_RX*%
X75500000Y-89000000D03*
%TO.P,J2,3,Pin_3_3*%
%TO.N,/H723_FDCAN2_TX*%
X75500000Y-91540000D03*
%TO.P,J2,4,Pin_4_4*%
%TO.N,/H723_FDCAN2_RX*%
X75500000Y-94080000D03*
%TO.P,J2,5,Pin_5_5*%
%TO.N,GND*%
X75500000Y-96620000D03*
%TO.P,J2,6,Pin_6_6*%
X75500000Y-99160000D03*
%TD*%
D14*
%TO.P,U12,1,D_1*%
%TO.N,/H723_FDCAN1_TX*%
X149230000Y-105200000D03*
%TO.P,U12,2,GND_2*%
%TO.N,GND*%
X149230000Y-106470000D03*
%TO.P,U12,3,VCC_3*%
%TO.N,+3.3V*%
X149230000Y-107740000D03*
%TO.P,U12,4,R_4*%
%TO.N,/H723_FDCAN1_RX*%
X149230000Y-109010000D03*
%TO.P,U12,5,VREF_5*%
%TO.N,unconnected-(U12-VREF-Pad5)*%
X154170000Y-109010000D03*
%TO.P,U12,6,CANL_6*%
%TO.N,/CANL_1*%
X154170000Y-107740000D03*
%TO.P,U12,7,CANH_7*%
%TO.N,/CANH_1*%
X154170000Y-106470000D03*
%TO.P,U12,8,RS_8*%
%TO.N,GND*%
X154170000Y-105200000D03*
%TD*%
D19*
%TO.P,J11,1,Pin_1_1*%
%TO.N,VCC*%
X207690000Y-79500000D03*
D18*
%TO.P,J11,2,Pin_2_2*%
%TO.N,/US_TRIG*%
X210230000Y-79500000D03*
%TO.P,J11,3,Pin_3_3*%
%TO.N,Net-(J11-Pin_3)*%
X212770000Y-79500000D03*
%TO.P,J11,4,Pin_4_4*%
%TO.N,GND*%
X215310000Y-79500000D03*
%TD*%
D24*
%TO.P,U7,1,VBAT_1*%
%TO.N,+3.3V*%
X230150000Y-141000000D03*
%TO.P,U7,2,PC13_2*%
%TO.N,unconnected-(U7-PC13-Pad2)*%
X230150000Y-141500000D03*
%TO.P,U7,3,PC14_3*%
%TO.N,unconnected-(U7-PC14-Pad3)*%
X230150000Y-142000000D03*
%TO.P,U7,4,PC15_4*%
%TO.N,unconnected-(U7-PC15-Pad4)*%
X230150000Y-142500000D03*
%TO.P,U7,5,PH0_5*%
%TO.N,/ND_OSC_IN*%
X230150000Y-143000000D03*
%TO.P,U7,6,PH1_6*%
%TO.N,/ND_OSC_OUT*%
X230150000Y-143500000D03*
%TO.P,U7,7,NRST_7*%
%TO.N,/ND_NRST*%
X230150000Y-144000000D03*
%TO.P,U7,8,PC0_8*%
%TO.N,/ADC_STEER*%
X230150000Y-144500000D03*
%TO.P,U7,9,PC1_9*%
%TO.N,/ADC_BRAKE*%
X230150000Y-145000000D03*
%TO.P,U7,10,PC2_10*%
%TO.N,/ADC_ACCEL*%
X230150000Y-145500000D03*
%TO.P,U7,11,PC3_11*%
%TO.N,/TOGGLE_SW*%
X230150000Y-146000000D03*
%TO.P,U7,12,VSSA_12*%
%TO.N,GND*%
X230150000Y-146500000D03*
%TO.P,U7,13,VDDA_13*%
%TO.N,3.3VA_2*%
X230150000Y-147000000D03*
%TO.P,U7,14,PA0_14*%
%TO.N,/LED_LEFT*%
X230150000Y-147500000D03*
%TO.P,U7,15,PA1_15*%
%TO.N,/LED_RIGHT*%
X230150000Y-148000000D03*
%TO.P,U7,16,PA2_16*%
%TO.N,/UART_TX_2*%
X230150000Y-148500000D03*
D25*
%TO.P,U7,17,PA3_17*%
%TO.N,/UART_RX_2*%
X232075000Y-150425000D03*
%TO.P,U7,18,VSS_18*%
%TO.N,GND*%
X232575000Y-150425000D03*
%TO.P,U7,19,VDD_19*%
%TO.N,+3.3V*%
X233075000Y-150425000D03*
%TO.P,U7,20,PA4_20*%
%TO.N,/LED_BRAKE*%
X233575000Y-150425000D03*
%TO.P,U7,21,PA5_21*%
%TO.N,/LED_STATUS*%
X234075000Y-150425000D03*
%TO.P,U7,22,PA6_22*%
%TO.N,unconnected-(U7-PA6-Pad22)*%
X234575000Y-150425000D03*
%TO.P,U7,23,PA7_23*%
%TO.N,unconnected-(U7-PA7-Pad23)*%
X235075000Y-150425000D03*
%TO.P,U7,24,PC4_24*%
%TO.N,unconnected-(U7-PC4-Pad24)*%
X235575000Y-150425000D03*
%TO.P,U7,25,PC5_25*%
%TO.N,unconnected-(U7-PC5-Pad25)*%
X236075000Y-150425000D03*
%TO.P,U7,26,PB0_26*%
%TO.N,/ACT_ENA*%
X236575000Y-150425000D03*
%TO.P,U7,27,PB1_27*%
%TO.N,/ACT_ENB*%
X237075000Y-150425000D03*
%TO.P,U7,28,PB2_28*%
%TO.N,/PB2_2*%
X237575000Y-150425000D03*
%TO.P,U7,29,PB10_29*%
%TO.N,/US_TRIG*%
X238075000Y-150425000D03*
%TO.P,U7,30,VCAP_1_30*%
%TO.N,/ND_VCAP1*%
X238575000Y-150425000D03*
%TO.P,U7,31,VSS_31*%
%TO.N,GND*%
X239075000Y-150425000D03*
%TO.P,U7,32,VDD_32*%
%TO.N,+3.3V*%
X239575000Y-150425000D03*
D24*
%TO.P,U7,33,PB12_33*%
%TO.N,/ACT_IN1*%
X241500000Y-148500000D03*
%TO.P,U7,34,PB13_34*%
%TO.N,/ACT_IN2*%
X241500000Y-148000000D03*
%TO.P,U7,35,PB14_35*%
%TO.N,/ACT_IN3*%
X241500000Y-147500000D03*
%TO.P,U7,36,PB15_36*%
%TO.N,/ACT_IN4*%
X241500000Y-147000000D03*
%TO.P,U7,37,PC6_37*%
%TO.N,unconnected-(U7-PC6-Pad37)*%
X241500000Y-146500000D03*
%TO.P,U7,38,PC7_38*%
%TO.N,unconnected-(U7-PC7-Pad38)*%
X241500000Y-146000000D03*
%TO.P,U7,39,PC8_39*%
%TO.N,/DHT11_DATA*%
X241500000Y-145500000D03*
%TO.P,U7,40,PC9_40*%
%TO.N,unconnected-(U7-PC9-Pad40)*%
X241500000Y-145000000D03*
%TO.P,U7,41,PA8_41*%
%TO.N,unconnected-(U7-PA8-Pad41)*%
X241500000Y-144500000D03*
%TO.P,U7,42,PA9_42*%
%TO.N,unconnected-(U7-PA9-Pad42)*%
X241500000Y-144000000D03*
%TO.P,U7,43,PA10_43*%
%TO.N,unconnected-(U7-PA10-Pad43)*%
X241500000Y-143500000D03*
%TO.P,U7,44,PA11_44*%
%TO.N,/F446_CAN2_RX*%
X241500000Y-143000000D03*
%TO.P,U7,45,PA12_45*%
%TO.N,/F446_CAN2_TX*%
X241500000Y-142500000D03*
%TO.P,U7,46,PA13_46*%
%TO.N,/ND_SWDIO*%
X241500000Y-142000000D03*
%TO.P,U7,47,VSS_47*%
%TO.N,GND*%
X241500000Y-141500000D03*
%TO.P,U7,48,VDD_48*%
%TO.N,+3.3V*%
X241500000Y-141000000D03*
D25*
%TO.P,U7,49,PA14_49*%
%TO.N,/ND_SWCLK*%
X239575000Y-139075000D03*
%TO.P,U7,50,PA15_50*%
%TO.N,unconnected-(U7-PA15-Pad50)*%
X239075000Y-139075000D03*
%TO.P,U7,51,PC10_51*%
%TO.N,unconnected-(U7-PC10-Pad51)*%
X238575000Y-139075000D03*
%TO.P,U7,52,PC11_52*%
%TO.N,unconnected-(U7-PC11-Pad52)*%
X238075000Y-139075000D03*
%TO.P,U7,53,PC12_53*%
%TO.N,unconnected-(U7-PC12-Pad53)*%
X237575000Y-139075000D03*
%TO.P,U7,54,PD2_54*%
%TO.N,unconnected-(U7-PD2-Pad54)*%
X237075000Y-139075000D03*
%TO.P,U7,55,PB3_55*%
%TO.N,/ND_SWO*%
X236575000Y-139075000D03*
%TO.P,U7,56,PB4_56*%
%TO.N,/BNO_RST*%
X236075000Y-139075000D03*
%TO.P,U7,57,PB5_57*%
%TO.N,/BNO_INT*%
X235575000Y-139075000D03*
%TO.P,U7,58,PB6_58*%
%TO.N,/US_ECHO*%
X235075000Y-139075000D03*
%TO.P,U7,59,PB7_59*%
%TO.N,unconnected-(U7-PB7-Pad59)*%
X234575000Y-139075000D03*
%TO.P,U7,60,BOOT0_60*%
%TO.N,/ND_BOOT0*%
X234075000Y-139075000D03*
%TO.P,U7,61,PB8_61*%
%TO.N,/I2C1_SCL*%
X233575000Y-139075000D03*
%TO.P,U7,62,PB9_62*%
%TO.N,/I2C1_SDA*%
X233075000Y-139075000D03*
%TO.P,U7,63,VSS_63*%
%TO.N,GND*%
X232575000Y-139075000D03*
%TO.P,U7,64,VDD_64*%
%TO.N,+3.3V*%
X232075000Y-139075000D03*
%TD*%
D22*
%TO.P,R13,1*%
%TO.N,/LED_STATUS*%
X268500000Y-131000000D03*
%TO.P,R13,2*%
%TO.N,Net-(D5-A)*%
X270325000Y-131000000D03*
%TD*%
D13*
%TO.P,C7,1*%
%TO.N,+3.3V*%
X146600000Y-154775000D03*
%TO.P,C7,2*%
%TO.N,GND*%
X146600000Y-157725000D03*
%TD*%
D22*
%TO.P,R12,1*%
%TO.N,/LED_BRAKE*%
X268000000Y-117000000D03*
%TO.P,R12,2*%
%TO.N,Net-(D4-A)*%
X269825000Y-117000000D03*
%TD*%
D26*
%TO.P,J1,1,Pin_1_1*%
%TO.N,VCC*%
X75327500Y-173455000D03*
D27*
%TO.P,J1,2,Pin_2_2*%
%TO.N,GND*%
X75327500Y-178535000D03*
%TD*%
D22*
%TO.P,R3,1*%
%TO.N,/ND_BOOT0*%
X234025000Y-135000000D03*
%TO.P,R3,2*%
%TO.N,GND*%
X235850000Y-135000000D03*
%TD*%
D11*
%TO.P,C24,1*%
%TO.N,/ND_OSC_OUT*%
X224500000Y-147400000D03*
%TO.P,C24,2*%
%TO.N,GND*%
X221550000Y-147400000D03*
%TD*%
D28*
%TO.P,C8,1*%
%TO.N,+3.3V*%
X155950000Y-152400000D03*
%TO.P,C8,2*%
%TO.N,GND*%
X158900000Y-152400000D03*
%TD*%
D22*
%TO.P,R9,1*%
%TO.N,+3.3V*%
X238675000Y-78000000D03*
%TO.P,R9,2*%
%TO.N,/TOGGLE_SW*%
X240500000Y-78000000D03*
%TD*%
D10*
%TO.P,R6,1*%
%TO.N,/CANH_2*%
X244500000Y-100587500D03*
%TO.P,R6,2*%
%TO.N,/CANL_2*%
X244500000Y-102412500D03*
%TD*%
D29*
%TO.P,C14,1*%
%TO.N,3.3VA_1*%
X138600000Y-163750000D03*
%TO.P,C14,2*%
%TO.N,GND*%
X135000000Y-163750000D03*
%TD*%
D19*
%TO.P,J3,1,Pin_1_1*%
%TO.N,+3.3V*%
X75500000Y-110150000D03*
D18*
%TO.P,J3,2,Pin_2_2*%
%TO.N,/RB_SWCLK*%
X75500000Y-112690000D03*
%TO.P,J3,3,Pin_3_3*%
%TO.N,GND*%
X75500000Y-115230000D03*
%TO.P,J3,4,Pin_4_4*%
%TO.N,/RB_SWDIO*%
X75500000Y-117770000D03*
%TO.P,J3,5,Pin_5_5*%
%TO.N,/RB_NRST*%
X75500000Y-120310000D03*
%TO.P,J3,6,Pin_6_6*%
%TO.N,/RB_SWO*%
X75500000Y-122850000D03*
%TD*%
D22*
%TO.P,FB1,1*%
%TO.N,+3.3V*%
X137050000Y-156150000D03*
%TO.P,FB1,2*%
%TO.N,3.3VA_1*%
X138875000Y-156150000D03*
%TD*%
D30*
%TO.P,D3,1,K_1*%
%TO.N,GND*%
X267960000Y-95000000D03*
D31*
%TO.P,D3,2,A_2*%
%TO.N,Net-(D3-A)*%
X270500000Y-95000000D03*
%TD*%
D32*
%TO.P,C20,1*%
%TO.N,3.3VA_2*%
X227950000Y-151850000D03*
%TO.P,C20,2*%
%TO.N,GND*%
X226400000Y-151850000D03*
%TD*%
D23*
%TO.P,R8,1*%
%TO.N,/PB2_2*%
X220087500Y-143912500D03*
%TO.P,R8,2*%
%TO.N,GND*%
X220087500Y-142087500D03*
%TD*%
D22*
%TO.P,R1,1*%
%TO.N,Net-(J11-Pin_3)*%
X206175000Y-88500000D03*
%TO.P,R1,2*%
%TO.N,/US_ECHO*%
X208000000Y-88500000D03*
%TD*%
D30*
%TO.P,D5,1,K_1*%
%TO.N,GND*%
X267960000Y-124500000D03*
D31*
%TO.P,D5,2,A_2*%
%TO.N,Net-(D5-A)*%
X270500000Y-124500000D03*
%TD*%
D19*
%TO.P,J4,1,Pin_1_1*%
%TO.N,+3.3V*%
X75500000Y-132960000D03*
D18*
%TO.P,J4,2,Pin_2_2*%
%TO.N,/ND_SWCLK*%
X75500000Y-135500000D03*
%TO.P,J4,3,Pin_3_3*%
%TO.N,GND*%
X75500000Y-138040000D03*
%TO.P,J4,4,Pin_4_4*%
%TO.N,/ND_SWDIO*%
X75500000Y-140580000D03*
%TO.P,J4,5,Pin_5_5*%
%TO.N,/ND_NRST*%
X75500000Y-143120000D03*
%TO.P,J4,6,Pin_6_6*%
%TO.N,/ND_SWO*%
X75500000Y-145660000D03*
%TD*%
D11*
%TO.P,C6,1*%
%TO.N,+3.3V*%
X141050000Y-138500000D03*
%TO.P,C6,2*%
%TO.N,GND*%
X138100000Y-138500000D03*
%TD*%
D22*
%TO.P,FB2,1*%
%TO.N,+3.3V*%
X226237500Y-149800000D03*
%TO.P,FB2,2*%
%TO.N,3.3VA_2*%
X228062500Y-149800000D03*
%TD*%
D16*
%TO.P,C4,1*%
%TO.N,+3.3V*%
X119000000Y-176500000D03*
%TO.P,C4,2*%
%TO.N,GND*%
X122600000Y-176500000D03*
%TD*%
D30*
%TO.P,D2,1,K_1*%
%TO.N,GND*%
X267460000Y-80000000D03*
D31*
%TO.P,D2,2,A_2*%
%TO.N,Net-(D2-A)*%
X270000000Y-80000000D03*
%TD*%
D30*
%TO.P,D4,1,K_1*%
%TO.N,GND*%
X267960000Y-110000000D03*
D31*
%TO.P,D4,2,A_2*%
%TO.N,Net-(D4-A)*%
X270500000Y-110000000D03*
%TD*%
D11*
%TO.P,C23,1*%
%TO.N,/ND_OSC_IN*%
X222225000Y-137500000D03*
%TO.P,C23,2*%
%TO.N,GND*%
X219275000Y-137500000D03*
%TD*%
D19*
%TO.P,J9,1,Pin_1_1*%
%TO.N,/UART_TX_2*%
X269500000Y-143960000D03*
D18*
%TO.P,J9,2,Pin_2_2*%
%TO.N,/UART_RX_2*%
X269500000Y-146500000D03*
%TO.P,J9,3,Pin_3_3*%
%TO.N,GND*%
X269500000Y-149040000D03*
%TD*%
D12*
%TO.P,C19,1*%
%TO.N,+3.3V*%
X246950000Y-141000000D03*
%TO.P,C19,2*%
%TO.N,GND*%
X246950000Y-138050000D03*
%TD*%
D32*
%TO.P,C13,1*%
%TO.N,3.3VA_1*%
X138600000Y-158850000D03*
%TO.P,C13,2*%
%TO.N,GND*%
X137050000Y-158850000D03*
%TD*%
D22*
%TO.P,R11,1*%
%TO.N,/LED_RIGHT*%
X268000000Y-102000000D03*
%TO.P,R11,2*%
%TO.N,Net-(D3-A)*%
X269825000Y-102000000D03*
%TD*%
D23*
%TO.P,R4,1*%
%TO.N,/CANL_1*%
X158912500Y-119412500D03*
%TO.P,R4,2*%
%TO.N,/CANH_1*%
X158912500Y-117587500D03*
%TD*%
D33*
%TO.P,SW1,1,1_1*%
%TO.N,/TOGGLE_SW*%
X247500000Y-78000000D03*
X254000000Y-78000000D03*
%TO.P,SW1,2,2_2*%
%TO.N,GND*%
X247500000Y-82500000D03*
X254000000Y-82500000D03*
%TD*%
D19*
%TO.P,J10,1,Pin_1_1*%
%TO.N,VCC*%
X75500000Y-155000000D03*
D18*
%TO.P,J10,2,Pin_2_2*%
%TO.N,GND*%
X75500000Y-157540000D03*
%TO.P,J10,3,Pin_3_3*%
%TO.N,/SERVO_PWM*%
X75500000Y-160080000D03*
%TD*%
D34*
%TO.P,C25,1*%
%TO.N,/TOGGLE_SW*%
X238950000Y-83000000D03*
%TO.P,C25,2*%
%TO.N,GND*%
X240500000Y-83000000D03*
%TD*%
D28*
%TO.P,C2,1*%
%TO.N,/RB_NRST*%
X130950000Y-147400000D03*
%TO.P,C2,2*%
%TO.N,GND*%
X133900000Y-147400000D03*
%TD*%
D35*
%TO.P,Y3,1,IN/OUT_1*%
%TO.N,/ND_OSC_IN*%
X222300000Y-140850000D03*
%TO.P,Y3,2,GND_2*%
%TO.N,GND*%
X222300000Y-144550000D03*
%TO.P,Y3,3,OUT/IN_3*%
%TO.N,/ND_OSC_OUT*%
X224500000Y-144550000D03*
%TO.P,Y3,4,GND__1_4*%
%TO.N,GND*%
X224500000Y-140850000D03*
%TD*%
D36*
%TO.P,U1,1,GND_1*%
%TO.N,GND*%
X100700000Y-174200000D03*
%TO.P,U1,2,VO_2*%
%TO.N,+3.3V*%
X100700000Y-176500000D03*
D37*
X107000000Y-176500000D03*
D36*
%TO.P,U1,3,VI_3*%
%TO.N,VCC*%
X100700000Y-178800000D03*
%TD*%
D30*
%TO.P,D1,1,K_1*%
%TO.N,GND*%
X91635000Y-82425000D03*
D31*
%TO.P,D1,2,A_2*%
%TO.N,Net-(D1-A)*%
X94175000Y-82425000D03*
%TD*%
D10*
%TO.P,R5,1*%
%TO.N,/CANH_2*%
X244500000Y-118587500D03*
%TO.P,R5,2*%
%TO.N,/CANL_2*%
X244500000Y-120412500D03*
%TD*%
D11*
%TO.P,C27,2*%
%TO.N,GND*%
X136425000Y-153050000D03*
%TO.P,C27,1*%
%TO.N,/RB_OSC_OUT*%
X139375000Y-153050000D03*
%TD*%
D35*
%TO.P,Y4,4,GND__1_4*%
%TO.N,GND*%
X139300000Y-146000000D03*
%TO.P,Y4,3,OUT/IN_3*%
%TO.N,/RB_OSC_OUT*%
X139300000Y-149700000D03*
%TO.P,Y4,2,GND_2*%
%TO.N,GND*%
X137100000Y-149700000D03*
%TO.P,Y4,1,IN/OUT_1*%
%TO.N,/RB_OSC_IN*%
X137100000Y-146000000D03*
%TD*%
D28*
%TO.P,C26,2*%
%TO.N,GND*%
X139925000Y-142850000D03*
%TO.P,C26,1*%
%TO.N,/RB_OSC_IN*%
X136975000Y-142850000D03*
%TD*%
D24*
%TO.P,U4,1,VBAT_1*%
%TO.N,+3.3V*%
X143650000Y-142500000D03*
%TO.P,U4,2,PC13_2*%
%TO.N,unconnected-(U4-PC13-Pad2)*%
X143650000Y-143000000D03*
%TO.P,U4,3,PC14_3*%
%TO.N,unconnected-(U4-PC14-Pad3)*%
X143650000Y-143500000D03*
%TO.P,U4,4,PC15_4*%
%TO.N,unconnected-(U4-PC15-Pad4)*%
X143650000Y-144000000D03*
%TO.P,U4,5,PH0_5*%
%TO.N,/RB_OSC_IN*%
X143650000Y-144500000D03*
%TO.P,U4,6,PH1_6*%
%TO.N,/RB_OSC_OUT*%
X143650000Y-145000000D03*
%TO.P,U4,7,NRST_7*%
%TO.N,/RB_NRST*%
X143650000Y-145500000D03*
%TO.P,U4,8,PC0_8*%
%TO.N,unconnected-(U4-PC0-Pad8)*%
X143650000Y-146000000D03*
%TO.P,U4,9,PC1_9*%
%TO.N,unconnected-(U4-PC1-Pad9)*%
X143650000Y-146500000D03*
%TO.P,U4,10,PC2_10*%
%TO.N,unconnected-(U4-PC2-Pad10)*%
X143650000Y-147000000D03*
%TO.P,U4,11,PC3_11*%
%TO.N,unconnected-(U4-PC3-Pad11)*%
X143650000Y-147500000D03*
%TO.P,U4,12,VSSA_12*%
%TO.N,GND*%
X143650000Y-148000000D03*
%TO.P,U4,13,VDDA_13*%
%TO.N,3.3VA_1*%
X143650000Y-148500000D03*
%TO.P,U4,14,PA0_14*%
%TO.N,unconnected-(U4-PA0-Pad14)*%
X143650000Y-149000000D03*
%TO.P,U4,15,PA1_15*%
%TO.N,unconnected-(U4-PA1-Pad15)*%
X143650000Y-149500000D03*
%TO.P,U4,16,PA2_16*%
%TO.N,/UART_TX_1*%
X143650000Y-150000000D03*
D25*
%TO.P,U4,17,PA3_17*%
%TO.N,/UART_RX_1*%
X145575000Y-151925000D03*
%TO.P,U4,18,VSS_18*%
%TO.N,GND*%
X146075000Y-151925000D03*
%TO.P,U4,19,VDD_19*%
%TO.N,+3.3V*%
X146575000Y-151925000D03*
%TO.P,U4,20,PA4_20*%
%TO.N,unconnected-(U4-PA4-Pad20)*%
X147075000Y-151925000D03*
%TO.P,U4,21,PA5_21*%
%TO.N,unconnected-(U4-PA5-Pad21)*%
X147575000Y-151925000D03*
%TO.P,U4,22,PA6_22*%
%TO.N,/SERVO_PWM*%
X148075000Y-151925000D03*
%TO.P,U4,23,PA7_23*%
%TO.N,unconnected-(U4-PA7-Pad23)*%
X148575000Y-151925000D03*
%TO.P,U4,24,PC4_24*%
%TO.N,unconnected-(U4-PC4-Pad24)*%
X149075000Y-151925000D03*
%TO.P,U4,25,PC5_25*%
%TO.N,unconnected-(U4-PC5-Pad25)*%
X149575000Y-151925000D03*
%TO.P,U4,26,PB0_26*%
%TO.N,unconnected-(U4-PB0-Pad26)*%
X150075000Y-151925000D03*
%TO.P,U4,27,PB1_27*%
%TO.N,unconnected-(U4-PB1-Pad27)*%
X150575000Y-151925000D03*
%TO.P,U4,28,PB2_28*%
%TO.N,/PB2_1*%
X151075000Y-151925000D03*
%TO.P,U4,29,PB10_29*%
%TO.N,unconnected-(U4-PB10-Pad29)*%
X151575000Y-151925000D03*
%TO.P,U4,30,VCAP_1_30*%
%TO.N,/RB_VCAP1*%
X152075000Y-151925000D03*
%TO.P,U4,31,VSS_31*%
%TO.N,GND*%
X152575000Y-151925000D03*
%TO.P,U4,32,VDD_32*%
%TO.N,+3.3V*%
X153075000Y-151925000D03*
D24*
%TO.P,U4,33,PB12_33*%
%TO.N,unconnected-(U4-PB12-Pad33)*%
X155000000Y-150000000D03*
%TO.P,U4,34,PB13_34*%
%TO.N,unconnected-(U4-PB13-Pad34)*%
X155000000Y-149500000D03*
%TO.P,U4,35,PB14_35*%
%TO.N,unconnected-(U4-PB14-Pad35)*%
X155000000Y-149000000D03*
%TO.P,U4,36,PB15_36*%
%TO.N,unconnected-(U4-PB15-Pad36)*%
X155000000Y-148500000D03*
%TO.P,U4,37,PC6_37*%
%TO.N,unconnected-(U4-PC6-Pad37)*%
X155000000Y-148000000D03*
%TO.P,U4,38,PC7_38*%
%TO.N,unconnected-(U4-PC7-Pad38)*%
X155000000Y-147500000D03*
%TO.P,U4,39,PC8_39*%
%TO.N,unconnected-(U4-PC8-Pad39)*%
X155000000Y-147000000D03*
%TO.P,U4,40,PC9_40*%
%TO.N,unconnected-(U4-PC9-Pad40)*%
X155000000Y-146500000D03*
%TO.P,U4,41,PA8_41*%
%TO.N,unconnected-(U4-PA8-Pad41)*%
X155000000Y-146000000D03*
%TO.P,U4,42,PA9_42*%
%TO.N,unconnected-(U4-PA9-Pad42)*%
X155000000Y-145500000D03*
%TO.P,U4,43,PA10_43*%
%TO.N,unconnected-(U4-PA10-Pad43)*%
X155000000Y-145000000D03*
%TO.P,U4,44,PA11_44*%
%TO.N,/F446_CAN1_RX*%
X155000000Y-144500000D03*
%TO.P,U4,45,PA12_45*%
%TO.N,/F446_CAN1_TX*%
X155000000Y-144000000D03*
%TO.P,U4,46,PA13_46*%
%TO.N,/RB_SWDIO*%
X155000000Y-143500000D03*
%TO.P,U4,47,VSS_47*%
%TO.N,GND*%
X155000000Y-143000000D03*
%TO.P,U4,48,VDD_48*%
%TO.N,+3.3V*%
X155000000Y-142500000D03*
D25*
%TO.P,U4,49,PA14_49*%
%TO.N,/RB_SWCLK*%
X153075000Y-140575000D03*
%TO.P,U4,50,PA15_50*%
%TO.N,unconnected-(U4-PA15-Pad50)*%
X152575000Y-140575000D03*
%TO.P,U4,51,PC10_51*%
%TO.N,unconnected-(U4-PC10-Pad51)*%
X152075000Y-140575000D03*
%TO.P,U4,52,PC11_52*%
%TO.N,unconnected-(U4-PC11-Pad52)*%
X151575000Y-140575000D03*
%TO.P,U4,53,PC12_53*%
%TO.N,unconnected-(U4-PC12-Pad53)*%
X151075000Y-140575000D03*
%TO.P,U4,54,PD2_54*%
%TO.N,unconnected-(U4-PD2-Pad54)*%
X150575000Y-140575000D03*
%TO.P,U4,55,PB3_55*%
%TO.N,/RB_SWO*%
X150075000Y-140575000D03*
%TO.P,U4,56,PB4_56*%
%TO.N,unconnected-(U4-PB4-Pad56)*%
X149575000Y-140575000D03*
%TO.P,U4,57,PB5_57*%
%TO.N,unconnected-(U4-PB5-Pad57)*%
X149075000Y-140575000D03*
%TO.P,U4,58,PB6_58*%
%TO.N,unconnected-(U4-PB6-Pad58)*%
X148575000Y-140575000D03*
%TO.P,U4,59,PB7_59*%
%TO.N,unconnected-(U4-PB7-Pad59)*%
X148075000Y-140575000D03*
%TO.P,U4,60,BOOT0_60*%
%TO.N,/RB_BOOT0*%
X147575000Y-140575000D03*
%TO.P,U4,61,PB8_61*%
%TO.N,unconnected-(U4-PB8-Pad61)*%
X147075000Y-140575000D03*
%TO.P,U4,62,PB9_62*%
%TO.N,unconnected-(U4-PB9-Pad62)*%
X146575000Y-140575000D03*
%TO.P,U4,63,VSS_63*%
%TO.N,GND*%
X146075000Y-140575000D03*
%TO.P,U4,64,VDD_64*%
%TO.N,+3.3V*%
X145575000Y-140575000D03*
%TD*%
D12*
%TO.P,C28,2*%
%TO.N,GND*%
X213850000Y-136475000D03*
%TO.P,C28,1*%
%TO.N,/ADC_BRAKE*%
X213850000Y-139425000D03*
%TD*%
D38*
%TO.N,GND*%
X209300000Y-131750000D03*
%TO.N,/ADC_BRAKE*%
X208550000Y-137250000D03*
%TO.N,/ADC_ACCEL*%
X215600000Y-145350000D03*
%TO.N,GND*%
X211550000Y-135650000D03*
%TO.N,/ADC_BRAKE*%
X212400000Y-140500000D03*
%TO.N,GND*%
X223200000Y-115250000D03*
X146600000Y-125850000D03*
X148750000Y-113750000D03*
X132150000Y-164500000D03*
X134800000Y-154650000D03*
X135600000Y-160250000D03*
%TO.N,/RB_NRST*%
X121950000Y-141800000D03*
X79550000Y-120350000D03*
X131700000Y-149500000D03*
X145600000Y-145600000D03*
%TO.N,GND*%
X152900000Y-158200000D03*
X141250000Y-143900000D03*
X140800000Y-145400000D03*
X160500000Y-152450000D03*
X146700000Y-159200000D03*
X134750000Y-150700000D03*
X133950000Y-145250000D03*
X166300000Y-137650000D03*
X155100000Y-132750000D03*
X136100000Y-136400000D03*
X143750000Y-132700000D03*
X230250000Y-157250000D03*
X245850000Y-154050000D03*
X250250000Y-139650000D03*
X231650000Y-130850000D03*
X225800000Y-136700000D03*
X216550000Y-138500000D03*
X224050000Y-138800000D03*
X224400000Y-151250000D03*
X220400000Y-151900000D03*
X221550000Y-151000000D03*
%TO.N,/ND_NRST*%
X80450000Y-139900000D03*
X213500000Y-149900000D03*
X227900000Y-144100000D03*
X223350000Y-143050000D03*
%TO.N,GND*%
X215430000Y-155030000D03*
X241050000Y-159650000D03*
%TO.N,/RB_VCAP1*%
X155800000Y-156600000D03*
%TO.N,GND*%
X163880000Y-155770000D03*
%TO.N,/ADC_BRAKE*%
X226800000Y-144800000D03*
%TO.N,/ADC_ACCEL*%
X225600000Y-146030000D03*
%TO.N,/DHT11_DATA*%
X94500000Y-125650000D03*
X239050000Y-145600000D03*
%TO.N,/ACT_ENA*%
X251300000Y-159050000D03*
X236600000Y-153100000D03*
%TO.N,/ACT_ENB*%
X237400000Y-152750000D03*
X251300000Y-156000000D03*
%TO.N,/ACT_IN1*%
X243500000Y-149250000D03*
X251200000Y-152780000D03*
%TO.N,/ACT_IN2*%
X244400000Y-148800000D03*
X251300000Y-150150000D03*
%TO.N,/ACT_IN3*%
X244250000Y-147290000D03*
X250850000Y-147040000D03*
%TO.N,/ACT_IN4*%
X249200000Y-144600000D03*
X243400000Y-147050000D03*
%TO.N,/ADC_STEER*%
X231969265Y-144719265D03*
X204050000Y-146900000D03*
%TO.N,/ADC_ACCEL*%
X198944612Y-131158771D03*
%TO.N,/ADC_BRAKE*%
X199600000Y-130700000D03*
%TO.N,GND*%
X195450000Y-148050000D03*
X120100000Y-91250000D03*
X217250000Y-139500000D03*
X93220000Y-174220000D03*
X123560000Y-178440000D03*
X151760000Y-115660000D03*
X165030000Y-140920000D03*
X142270000Y-147880000D03*
X220580000Y-140650000D03*
X221750000Y-158870000D03*
X144320000Y-118560000D03*
X238010000Y-98060000D03*
X153206196Y-150652388D03*
X237407500Y-133942500D03*
X215330000Y-85080000D03*
X153725000Y-142650000D03*
X239389238Y-141519004D03*
X226960000Y-146630000D03*
X99390000Y-171740000D03*
X234110000Y-147860000D03*
X230410000Y-118700000D03*
X77740000Y-180250000D03*
X154390000Y-103410000D03*
X230810000Y-100900000D03*
X240579101Y-152620000D03*
X237180000Y-115750000D03*
X146530000Y-106360000D03*
X146310000Y-142200000D03*
X231890000Y-137570000D03*
X148830000Y-86080000D03*
X146400000Y-150640000D03*
%TO.N,/RB_VCAP1*%
X152080000Y-153590000D03*
%TO.N,/TOGGLE_SW*%
X228590000Y-146000000D03*
X238960000Y-84430000D03*
%TO.N,/H723_FDCAN2_RX*%
X234710000Y-103480000D03*
X78620000Y-94120000D03*
%TO.N,/H723_FDCAN1_RX*%
X71580000Y-89980000D03*
X150980000Y-109030000D03*
%TO.N,/H723_FDCAN1_TX*%
X151010000Y-105260000D03*
X72450000Y-87350000D03*
%TO.N,/H723_FDCAN2_TX*%
X234990000Y-99680000D03*
X78610000Y-91600000D03*
%TO.N,/RB_SWDIO*%
X93590000Y-117840000D03*
X153310000Y-143500000D03*
%TO.N,/RB_SWCLK*%
X153050000Y-138160000D03*
X98890000Y-112560000D03*
%TO.N,/RB_SWO*%
X87550000Y-122750000D03*
X150050000Y-137480000D03*
%TO.N,/ND_SWDIO*%
X240050000Y-141970000D03*
X78300000Y-140630000D03*
%TO.N,/ND_SWO*%
X243360000Y-137280000D03*
X78540000Y-145660000D03*
%TO.N,/ND_SWCLK*%
X72960000Y-135540000D03*
X240960000Y-138950000D03*
%TO.N,/BNO_RST*%
X193730000Y-111990000D03*
X233680000Y-141310000D03*
%TO.N,/I2C1_SCL*%
X233672857Y-136694103D03*
X211660000Y-109460000D03*
%TO.N,/I2C1_SDA*%
X210780000Y-106900000D03*
X233070000Y-137220000D03*
%TO.N,/BNO_INT*%
X212300000Y-104310000D03*
X235640560Y-137550560D03*
%TO.N,/UART_TX_1*%
X141750000Y-150020000D03*
X115700000Y-144210000D03*
%TO.N,/UART_RX_1*%
X144610000Y-151930000D03*
X116320000Y-146610000D03*
%TO.N,/UART_RX_2*%
X266240000Y-146480000D03*
X232040000Y-148990000D03*
%TO.N,/UART_TX_2*%
X231400000Y-148510000D03*
X266280000Y-143960000D03*
%TO.N,/SERVO_PWM*%
X143190000Y-152490000D03*
X90360000Y-151170000D03*
%TO.N,/US_TRIG*%
X238850000Y-149080000D03*
X210240735Y-81180735D03*
%TO.N,/US_ECHO*%
X213550000Y-93990000D03*
X231500000Y-140330000D03*
%TO.N,/RB_BOOT0*%
X161840000Y-138960000D03*
X147570000Y-139150000D03*
%TO.N,/PB2_2*%
X237580000Y-149190000D03*
X220100000Y-145430000D03*
%TO.N,/LED_LEFT*%
X266600000Y-87500000D03*
X228750000Y-148000000D03*
%TO.N,/LED_RIGHT*%
X265970000Y-101970000D03*
X231570735Y-147490735D03*
%TO.N,/LED_BRAKE*%
X234340000Y-152220000D03*
X266410000Y-117000000D03*
%TO.N,/LED_STATUS*%
X234060000Y-149080000D03*
X267170000Y-131040000D03*
%TO.N,/F446_CAN1_RX*%
X147730000Y-121000000D03*
X156694265Y-144164265D03*
%TO.N,/F446_CAN1_TX*%
X157800000Y-143190000D03*
X147920000Y-117160000D03*
%TO.N,/F446_CAN2_TX*%
X234430000Y-117590000D03*
X242984440Y-142525560D03*
%TO.N,/F446_CAN2_RX*%
X238590000Y-143030000D03*
X232040000Y-123710000D03*
%TO.N,/CANL_1*%
X155630000Y-85740000D03*
X162370000Y-116770000D03*
X158820000Y-107770000D03*
X152520000Y-107750000D03*
%TO.N,/CANH_1*%
X156700000Y-104040000D03*
X156670000Y-106470000D03*
X156700000Y-84190000D03*
X161660000Y-116190000D03*
%TO.N,/CANH_2*%
X247140000Y-102410000D03*
X247080000Y-118590000D03*
%TO.N,/CANL_2*%
X246520000Y-120380000D03*
X246250000Y-103440000D03*
%TD*%
%TO.N,GND*%
D39*
X208575000Y-132475000D02*
X209300000Y-131750000D01*
X208575000Y-133492500D02*
X208575000Y-132475000D01*
%TO.N,/ADC_BRAKE*%
X208575000Y-137225000D02*
X208550000Y-137250000D01*
X208575000Y-135317500D02*
X208575000Y-137225000D01*
%TO.N,/ADC_ACCEL*%
X217100000Y-143850000D02*
X215600000Y-145350000D01*
X217100000Y-142350000D02*
X217100000Y-143850000D01*
%TO.N,+3.3V*%
D40*
X212950000Y-133400000D02*
X212100000Y-134250000D01*
X227075000Y-133400000D02*
X212950000Y-133400000D01*
X229550000Y-135875000D02*
X227075000Y-133400000D01*
X215115000Y-131235000D02*
X212950000Y-133400000D01*
X215115000Y-130485000D02*
X215115000Y-131235000D01*
X212030761Y-134250000D02*
X212100000Y-134250000D01*
X227300000Y-140450000D02*
X227300000Y-141175000D01*
X221850000Y-134250000D02*
X224050000Y-136450000D01*
X224050000Y-137200000D02*
X227300000Y-140450000D01*
X212100000Y-134250000D02*
X221850000Y-134250000D01*
X224050000Y-136450000D02*
X224050000Y-137200000D01*
X210650000Y-135630761D02*
X212030761Y-134250000D01*
X210650000Y-140530001D02*
X210650000Y-135630761D01*
X207460000Y-143720001D02*
X210650000Y-140530001D01*
X207460000Y-164050000D02*
X207460000Y-143720001D01*
X225465000Y-120135000D02*
X215115000Y-130485000D01*
X232030000Y-120135000D02*
X225465000Y-120135000D01*
%TO.N,GND*%
D39*
X212375000Y-136475000D02*
X211550000Y-135650000D01*
X213850000Y-136475000D02*
X212375000Y-136475000D01*
%TO.N,/ADC_BRAKE*%
X213475000Y-139425000D02*
X212400000Y-140500000D01*
X213850000Y-139425000D02*
X213475000Y-139425000D01*
%TO.N,/ADC_STEER*%
X203950000Y-147000000D02*
X204050000Y-146900000D01*
X200300000Y-147000000D02*
X203950000Y-147000000D01*
%TO.N,VCC*%
D41*
X87700000Y-162550000D02*
X87700000Y-176500000D01*
X80150000Y-155000000D02*
X87700000Y-162550000D01*
X75500000Y-155000000D02*
X80150000Y-155000000D01*
%TO.N,GND*%
D39*
X230385000Y-101325000D02*
X230810000Y-100900000D01*
X226700000Y-101325000D02*
X230385000Y-101325000D01*
%TO.N,+3.3V*%
D40*
X228455000Y-104275000D02*
X229330000Y-105150000D01*
X229330000Y-105150000D02*
X229330000Y-120135000D01*
X226700000Y-104275000D02*
X228455000Y-104275000D01*
%TO.N,GND*%
D39*
X225150000Y-117175000D02*
X223225000Y-115250000D01*
X223225000Y-115250000D02*
X223200000Y-115250000D01*
%TO.N,+3.3V*%
D40*
X232020000Y-120125000D02*
X232030000Y-120135000D01*
X225150000Y-120125000D02*
X232020000Y-120125000D01*
%TO.N,GND*%
D39*
X145950000Y-125200000D02*
X146600000Y-125850000D01*
X145950000Y-124900000D02*
X145950000Y-125200000D01*
X142900000Y-124900000D02*
X145950000Y-124900000D01*
X148600000Y-113900000D02*
X148750000Y-113750000D01*
X146100000Y-113900000D02*
X148600000Y-113900000D01*
%TO.N,+3.3V*%
D40*
X142900000Y-121950000D02*
X140680000Y-119730000D01*
X140680000Y-119730000D02*
X123770000Y-119730000D01*
X143050000Y-110950000D02*
X142990000Y-110890000D01*
X146100000Y-110950000D02*
X143050000Y-110950000D01*
X142990000Y-110890000D02*
X146140000Y-107740000D01*
%TO.N,GND*%
D39*
X132900000Y-163750000D02*
X132150000Y-164500000D01*
X135000000Y-163750000D02*
X132900000Y-163750000D01*
%TO.N,3.3VA_1*%
D42*
X138600000Y-158850000D02*
X138600000Y-163750000D01*
%TO.N,+3.3V*%
D40*
X211655000Y-159855000D02*
X208580000Y-162930000D01*
X233000000Y-153550000D02*
X226650000Y-159900000D01*
X233050000Y-153550000D02*
X233000000Y-153550000D01*
X226650000Y-159900000D02*
X226605000Y-159855000D01*
X226605000Y-159855000D02*
X211655000Y-159855000D01*
X208650000Y-163000000D02*
X208580000Y-162930000D01*
X208580000Y-162930000D02*
X207460000Y-164050000D01*
X240850000Y-163000000D02*
X208650000Y-163000000D01*
X242050000Y-161800000D02*
X240850000Y-163000000D01*
X242050000Y-152650000D02*
X242050000Y-161800000D01*
X243650000Y-151050000D02*
X242050000Y-152650000D01*
%TO.N,GND*%
D39*
X222300000Y-146650000D02*
X221550000Y-147400000D01*
X222300000Y-144550000D02*
X222300000Y-146650000D01*
X221550000Y-147400000D02*
X221550000Y-151000000D01*
%TO.N,+3.3V*%
D40*
X226237500Y-149800000D02*
X224900000Y-149800000D01*
X224900000Y-149800000D02*
X218950000Y-155750000D01*
X218950000Y-155750000D02*
X215760000Y-155750000D01*
%TO.N,GND*%
D39*
X134825000Y-154650000D02*
X134800000Y-154650000D01*
X136425000Y-153050000D02*
X134825000Y-154650000D01*
X135650000Y-160250000D02*
X135600000Y-160250000D01*
X137050000Y-158850000D02*
X135650000Y-160250000D01*
%TO.N,3.3VA_1*%
D42*
X138600000Y-158850000D02*
X138600000Y-156425000D01*
X138600000Y-156425000D02*
X138875000Y-156150000D01*
%TO.N,GND*%
D39*
X136425000Y-150375000D02*
X137100000Y-149700000D01*
X136425000Y-153050000D02*
X136425000Y-150375000D01*
%TO.N,+3.3V*%
D40*
X233075000Y-153525000D02*
X233075000Y-150425000D01*
X233050000Y-153550000D02*
X233075000Y-153525000D01*
X227475000Y-141000000D02*
X227300000Y-141175000D01*
X230150000Y-141000000D02*
X227475000Y-141000000D01*
%TO.N,/RB_NRST*%
D39*
X79510000Y-120310000D02*
X75500000Y-120310000D01*
X79550000Y-120350000D02*
X79510000Y-120310000D01*
X130950000Y-147400000D02*
X127550000Y-147400000D01*
X127550000Y-147400000D02*
X121950000Y-141800000D01*
X145500000Y-145500000D02*
X143650000Y-145500000D01*
X145600000Y-145600000D02*
X145500000Y-145500000D01*
X130950000Y-147400000D02*
X130950000Y-148750000D01*
X130950000Y-148750000D02*
X131700000Y-149500000D01*
%TO.N,GND*%
X152775000Y-158075000D02*
X152900000Y-158200000D01*
X152775000Y-156450000D02*
X152775000Y-158075000D01*
X140200000Y-142850000D02*
X141250000Y-143900000D01*
X139925000Y-142850000D02*
X140200000Y-142850000D01*
X140200000Y-146000000D02*
X140800000Y-145400000D01*
X139300000Y-146000000D02*
X140200000Y-146000000D01*
X160450000Y-152400000D02*
X160500000Y-152450000D01*
X158900000Y-152400000D02*
X160450000Y-152400000D01*
X146600000Y-159100000D02*
X146700000Y-159200000D01*
X146600000Y-157725000D02*
X146600000Y-159100000D01*
X135750000Y-149700000D02*
X134750000Y-150700000D01*
X137100000Y-149700000D02*
X135750000Y-149700000D01*
X133900000Y-145300000D02*
X133950000Y-145250000D01*
X133900000Y-147400000D02*
X133900000Y-145300000D01*
X165325000Y-138625000D02*
X166300000Y-137650000D01*
X165325000Y-139000000D02*
X165325000Y-138625000D01*
X155150000Y-132800000D02*
X155100000Y-132750000D01*
X155150000Y-134600000D02*
X155150000Y-132800000D01*
X136100000Y-136400000D02*
X136050000Y-136400000D01*
X136100000Y-136500000D02*
X136100000Y-136400000D01*
X138100000Y-138500000D02*
X136100000Y-136500000D01*
X144025000Y-132700000D02*
X143750000Y-132700000D01*
X145550000Y-134225000D02*
X144025000Y-132700000D01*
%TO.N,+3.3V*%
D40*
X145700000Y-128100000D02*
X136475000Y-128100000D01*
X155150000Y-137550000D02*
X145700000Y-128100000D01*
X151150000Y-160650000D02*
X144850000Y-166950000D01*
X154300000Y-160650000D02*
X151150000Y-160650000D01*
X144850000Y-166950000D02*
X144850000Y-169650000D01*
X154300000Y-154800000D02*
X154300000Y-160650000D01*
X155950000Y-153150000D02*
X154300000Y-154800000D01*
X155950000Y-152400000D02*
X155950000Y-153150000D01*
X144975000Y-169775000D02*
X123425000Y-169775000D01*
X144850000Y-169650000D02*
X144975000Y-169775000D01*
X123425000Y-169775000D02*
X119000000Y-174200000D01*
X146600000Y-154775000D02*
X144850000Y-156525000D01*
X144850000Y-156525000D02*
X144850000Y-166950000D01*
X119000000Y-174200000D02*
X119000000Y-176500000D01*
X137050000Y-156150000D02*
X123425000Y-169775000D01*
X136475000Y-128100000D02*
X115400000Y-128100000D01*
X145550000Y-137175000D02*
X136475000Y-128100000D01*
X118600000Y-124900000D02*
X115400000Y-128100000D01*
X141050000Y-138500000D02*
X131750000Y-129200000D01*
X114300000Y-129200000D02*
X93815000Y-149685000D01*
X131750000Y-129200000D02*
X114300000Y-129200000D01*
%TO.N,3.3VA_1*%
X142539239Y-148530000D02*
X142569239Y-148500000D01*
X142569239Y-148500000D02*
X143650000Y-148500000D01*
X142270000Y-148530000D02*
X142539239Y-148530000D01*
X141050000Y-149730050D02*
X142053880Y-148726170D01*
X142073830Y-148726170D02*
X142270000Y-148530000D01*
X141050000Y-153975000D02*
X141050000Y-149730050D01*
X142053880Y-148726170D02*
X142073830Y-148726170D01*
X138875000Y-156150000D02*
X141050000Y-153975000D01*
%TO.N,/RB_OSC_OUT*%
D39*
X139375000Y-149775000D02*
X139300000Y-149700000D01*
X139375000Y-153050000D02*
X139375000Y-149775000D01*
%TO.N,/RB_OSC_IN*%
X136975000Y-145875000D02*
X137100000Y-146000000D01*
X136975000Y-142850000D02*
X136975000Y-145875000D01*
%TO.N,+3.3V*%
D40*
X141050000Y-139900000D02*
X141050000Y-138500000D01*
X143650000Y-142500000D02*
X141050000Y-139900000D01*
%TO.N,/RB_OSC_OUT*%
D39*
X142842590Y-145000000D02*
X143650000Y-145000000D01*
X139300000Y-148542590D02*
X142842590Y-145000000D01*
X139300000Y-149700000D02*
X139300000Y-148542590D01*
%TO.N,/RB_OSC_IN*%
X138600000Y-144500000D02*
X143650000Y-144500000D01*
X137100000Y-146000000D02*
X138600000Y-144500000D01*
%TO.N,/PB2_1*%
X151075000Y-156325000D02*
X150950000Y-156450000D01*
X151075000Y-151925000D02*
X151075000Y-156325000D01*
%TO.N,+3.3V*%
D40*
X123770000Y-119730000D02*
X118600000Y-124900000D01*
X146060000Y-119730000D02*
X140680000Y-119730000D01*
X119000000Y-174870000D02*
X93815000Y-149685000D01*
X78100000Y-133970000D02*
X78100000Y-130250000D01*
X146575000Y-154750000D02*
X146575000Y-151925000D01*
X146600000Y-154775000D02*
X146575000Y-154750000D01*
X153550000Y-152400000D02*
X153075000Y-151925000D01*
X155950000Y-152400000D02*
X153550000Y-152400000D01*
X155150000Y-142350000D02*
X155000000Y-142500000D01*
X155150000Y-137550000D02*
X155150000Y-142350000D01*
%TO.N,GND*%
D39*
X231000000Y-156500000D02*
X230250000Y-157250000D01*
X233050000Y-156500000D02*
X231000000Y-156500000D01*
%TO.N,/ND_BOOT0*%
X234075000Y-138267590D02*
X234075000Y-139075000D01*
X234650000Y-137692590D02*
X234075000Y-138267590D01*
X234025000Y-135000000D02*
X234650000Y-135625000D01*
X234650000Y-135625000D02*
X234650000Y-137692590D01*
%TO.N,+3.3V*%
D40*
X246950000Y-147750000D02*
X243650000Y-151050000D01*
X246950000Y-141000000D02*
X246950000Y-147750000D01*
%TO.N,GND*%
D39*
X245800000Y-154000000D02*
X245850000Y-154050000D01*
X243650000Y-154000000D02*
X245800000Y-154000000D01*
X248650000Y-138050000D02*
X250250000Y-139650000D01*
X246950000Y-138050000D02*
X248650000Y-138050000D01*
X231650000Y-130850000D02*
X231650000Y-130800000D01*
X231625000Y-130850000D02*
X231650000Y-130850000D01*
X229550000Y-132925000D02*
X231625000Y-130850000D01*
X225800000Y-136725000D02*
X225800000Y-136700000D01*
X227300000Y-138225000D02*
X225800000Y-136725000D01*
X218275000Y-138500000D02*
X216550000Y-138500000D01*
X219275000Y-137500000D02*
X218275000Y-138500000D01*
X224500000Y-139250000D02*
X224050000Y-138800000D01*
X224500000Y-140850000D02*
X224500000Y-139250000D01*
X225000000Y-151850000D02*
X224400000Y-151250000D01*
X226400000Y-151850000D02*
X225000000Y-151850000D01*
X219425000Y-152875000D02*
X220400000Y-151900000D01*
X217600000Y-152875000D02*
X219425000Y-152875000D01*
%TO.N,/ND_NRST*%
X77230000Y-143120000D02*
X75500000Y-143120000D01*
X213525000Y-149925000D02*
X213500000Y-149900000D01*
X80450000Y-139900000D02*
X77230000Y-143120000D01*
X217600000Y-149925000D02*
X213525000Y-149925000D01*
X228000000Y-144000000D02*
X230150000Y-144000000D01*
X227900000Y-144100000D02*
X228000000Y-144000000D01*
X219247533Y-143050000D02*
X223350000Y-143050000D01*
X217600000Y-144697533D02*
X219247533Y-143050000D01*
X217600000Y-149925000D02*
X217600000Y-144697533D01*
%TO.N,/ND_OSC_IN*%
X224450000Y-143000000D02*
X230150000Y-143000000D01*
X222300000Y-140850000D02*
X224450000Y-143000000D01*
%TO.N,/ND_OSC_OUT*%
X224500000Y-144550000D02*
X225550000Y-143500000D01*
X225550000Y-143500000D02*
X230150000Y-143500000D01*
X224500000Y-147400000D02*
X224500000Y-144550000D01*
%TO.N,GND*%
X217455000Y-152875000D02*
X215430000Y-154900000D01*
X217600000Y-152875000D02*
X217455000Y-152875000D01*
X215430000Y-154900000D02*
X215430000Y-155030000D01*
%TO.N,3.3VA_2*%
D40*
X229074925Y-147000000D02*
X230150000Y-147000000D01*
X229024925Y-147050000D02*
X229074925Y-147000000D01*
X228500000Y-147050000D02*
X229024925Y-147050000D01*
X228050000Y-149787500D02*
X228050000Y-147500000D01*
X228062500Y-149800000D02*
X228050000Y-149787500D01*
X228050000Y-147500000D02*
X228500000Y-147050000D01*
D42*
X227950000Y-149912500D02*
X228062500Y-149800000D01*
X227950000Y-151850000D02*
X227950000Y-149912500D01*
X226000000Y-153800000D02*
X227950000Y-151850000D01*
X223800000Y-153800000D02*
X226000000Y-153800000D01*
%TO.N,/ND_OSC_IN*%
D39*
X222225000Y-140775000D02*
X222300000Y-140850000D01*
X222225000Y-137500000D02*
X222225000Y-140775000D01*
%TO.N,GND*%
X240900000Y-159650000D02*
X241050000Y-159650000D01*
X238900000Y-157650000D02*
X240900000Y-159650000D01*
%TO.N,+3.3V*%
D40*
X207460000Y-164050000D02*
X207460000Y-166300000D01*
X215760000Y-155750000D02*
X211655000Y-159855000D01*
X207460000Y-166300000D02*
X207460000Y-175910000D01*
X207160000Y-175910000D02*
X206640000Y-176430000D01*
X207460000Y-175910000D02*
X207160000Y-175910000D01*
X206640000Y-118235000D02*
X207875000Y-117000000D01*
X205370000Y-177700000D02*
X206640000Y-176430000D01*
X204750000Y-177700000D02*
X205370000Y-177700000D01*
X206640000Y-176430000D02*
X206640000Y-118235000D01*
X204750000Y-177700000D02*
X204750000Y-101140000D01*
X215535000Y-101140000D02*
X238675000Y-78000000D01*
X116610000Y-181370000D02*
X204750000Y-181370000D01*
X116670000Y-181310000D02*
X116610000Y-181370000D01*
X204750000Y-181370000D02*
X204750000Y-177700000D01*
X204750000Y-101140000D02*
X215535000Y-101140000D01*
X116670000Y-178110000D02*
X116670000Y-181310000D01*
X119000000Y-176500000D02*
X118280000Y-176500000D01*
X118280000Y-176500000D02*
X116670000Y-178110000D01*
%TO.N,3.3VA_2*%
X229271880Y-147000000D02*
X230150000Y-147000000D01*
%TO.N,GND*%
D39*
X228241471Y-146500000D02*
X227750000Y-146500000D01*
X227620000Y-146630000D02*
X226960000Y-146630000D01*
X228341471Y-146600000D02*
X228241471Y-146500000D01*
X227750000Y-146500000D02*
X227620000Y-146630000D01*
X228838529Y-146600000D02*
X228341471Y-146600000D01*
X228938529Y-146500000D02*
X228838529Y-146600000D01*
X230150000Y-146500000D02*
X228938529Y-146500000D01*
%TO.N,/LED_LEFT*%
X228750000Y-148000000D02*
X229250000Y-147500000D01*
X229250000Y-147500000D02*
X230150000Y-147500000D01*
%TO.N,+3.3V*%
D40*
X229550000Y-136550000D02*
X232075000Y-139075000D01*
X229550000Y-135875000D02*
X229550000Y-136550000D01*
X241600000Y-140900000D02*
X241500000Y-141000000D01*
X246850000Y-140900000D02*
X241600000Y-140900000D01*
D43*
X246950000Y-141000000D02*
X246850000Y-140900000D01*
D40*
X240300000Y-151050000D02*
X239675000Y-150425000D01*
X243650000Y-151050000D02*
X240300000Y-151050000D01*
%TO.N,/ND_VCAP1*%
D39*
X238575000Y-153725000D02*
X238575000Y-150425000D01*
X238900000Y-154050000D02*
X238575000Y-153725000D01*
%TO.N,/RB_VCAP1*%
X155800000Y-156600000D02*
X155850000Y-156550000D01*
X155850000Y-156550000D02*
X158300000Y-156550000D01*
%TO.N,GND*%
X163100000Y-156550000D02*
X163880000Y-155770000D01*
X161900000Y-156550000D02*
X163100000Y-156550000D01*
%TO.N,/ADC_BRAKE*%
X230150000Y-145000000D02*
X227000000Y-145000000D01*
X227000000Y-145000000D02*
X226800000Y-144800000D01*
%TO.N,/ADC_ACCEL*%
X226230000Y-145400000D02*
X225600000Y-146030000D01*
X228838529Y-145400000D02*
X226230000Y-145400000D01*
X228938529Y-145500000D02*
X228838529Y-145400000D01*
X230150000Y-145500000D02*
X228938529Y-145500000D01*
%TO.N,/ACT_ENB*%
X251600000Y-156300000D02*
X251300000Y-156000000D01*
X253175000Y-156300000D02*
X251600000Y-156300000D01*
%TO.N,Net-(front2-Pin_2)*%
X256350000Y-156300000D02*
X255000000Y-156300000D01*
X257120000Y-155530000D02*
X256350000Y-156300000D01*
X260100000Y-155530000D02*
X257120000Y-155530000D01*
%TO.N,/DHT11_DATA*%
X239050000Y-145600000D02*
X239150000Y-145500000D01*
X239150000Y-145500000D02*
X241500000Y-145500000D01*
X98885000Y-125650000D02*
X94500000Y-125650000D01*
X99035000Y-125500000D02*
X98885000Y-125650000D01*
%TO.N,/ACT_ENA*%
X236575000Y-153075000D02*
X236575000Y-150425000D01*
X236600000Y-153100000D02*
X236575000Y-153075000D01*
X251330000Y-159080000D02*
X251300000Y-159050000D01*
X253200000Y-159080000D02*
X251330000Y-159080000D01*
%TO.N,/ACT_ENB*%
X237075000Y-152425000D02*
X237075000Y-150425000D01*
X237400000Y-152750000D02*
X237075000Y-152425000D01*
%TO.N,/ACT_IN1*%
X242750000Y-148500000D02*
X241500000Y-148500000D01*
X243500000Y-149250000D02*
X242750000Y-148500000D01*
X251600000Y-153180000D02*
X251200000Y-152780000D01*
X253200000Y-153180000D02*
X251600000Y-153180000D01*
%TO.N,/ACT_IN2*%
X243650000Y-148050000D02*
X241550000Y-148050000D01*
X244400000Y-148800000D02*
X243650000Y-148050000D01*
X241550000Y-148050000D02*
X241500000Y-148000000D01*
X251380000Y-150230000D02*
X251300000Y-150150000D01*
X253200000Y-150230000D02*
X251380000Y-150230000D01*
%TO.N,/ACT_IN3*%
X242307410Y-147500000D02*
X241500000Y-147500000D01*
X242457410Y-147650000D02*
X242307410Y-147500000D01*
X243890000Y-147650000D02*
X242457410Y-147650000D01*
X244250000Y-147290000D02*
X243890000Y-147650000D01*
X250960000Y-146930000D02*
X250850000Y-147040000D01*
X253200000Y-146930000D02*
X250960000Y-146930000D01*
%TO.N,/ACT_IN4*%
X241550000Y-147050000D02*
X241500000Y-147000000D01*
X243400000Y-147050000D02*
X241550000Y-147050000D01*
X249620000Y-144180000D02*
X249200000Y-144600000D01*
X253200000Y-144180000D02*
X249620000Y-144180000D01*
%TO.N,/ADC_STEER*%
X230150000Y-144500000D02*
X231750000Y-144500000D01*
X231750000Y-144500000D02*
X231969265Y-144719265D01*
X138400000Y-100650000D02*
X144890000Y-107140000D01*
X121100000Y-100650000D02*
X138400000Y-100650000D01*
X164290000Y-107140000D02*
X204050000Y-146900000D01*
%TO.N,Net-(front2-Pin_1)*%
X256035000Y-158070000D02*
X255025000Y-159080000D01*
X260100000Y-158070000D02*
X256035000Y-158070000D01*
%TO.N,Net-(front2-Pin_3)*%
X255215000Y-152990000D02*
X255025000Y-153180000D01*
X260100000Y-152990000D02*
X255215000Y-152990000D01*
%TO.N,Net-(front2-Pin_4)*%
X255245000Y-150450000D02*
X255025000Y-150230000D01*
X260100000Y-150450000D02*
X255245000Y-150450000D01*
%TO.N,Net-(front2-Pin_5)*%
X259120000Y-146930000D02*
X255025000Y-146930000D01*
X260100000Y-147910000D02*
X259120000Y-146930000D01*
%TO.N,Net-(front2-Pin_6)*%
X258910000Y-144180000D02*
X255025000Y-144180000D01*
X260100000Y-145370000D02*
X258910000Y-144180000D01*
%TO.N,/ADC_ACCEL*%
X149400000Y-101550000D02*
X169100000Y-101550000D01*
X137100000Y-89250000D02*
X149400000Y-101550000D01*
X169100000Y-101550000D02*
X198708771Y-131158771D01*
X198708771Y-131158771D02*
X198944612Y-131158771D01*
X122300000Y-89250000D02*
X137100000Y-89250000D01*
%TO.N,/ADC_BRAKE*%
X169590000Y-100690000D02*
X199600000Y-130700000D01*
X149175000Y-100690000D02*
X169590000Y-100690000D01*
X132050000Y-83565000D02*
X149175000Y-100690000D01*
%TO.N,/ADC_ACCEL*%
X118400000Y-83265000D02*
X122300000Y-87165000D01*
X122300000Y-87165000D02*
X122300000Y-89250000D01*
%TO.N,GND*%
X196300000Y-148050000D02*
X195450000Y-148050000D01*
X197350000Y-147000000D02*
X196300000Y-148050000D01*
X120475000Y-90875000D02*
X120100000Y-91250000D01*
X120475000Y-89250000D02*
X120475000Y-90875000D01*
X217000000Y-139500000D02*
X217250000Y-139500000D01*
X214150000Y-142350000D02*
X217000000Y-139500000D01*
%TO.N,+3.3V*%
D40*
X131750000Y-80725000D02*
X132050000Y-81025000D01*
X118400000Y-80725000D02*
X131750000Y-80725000D01*
X106450000Y-80725000D02*
X118400000Y-80725000D01*
X103837500Y-83337500D02*
X106450000Y-80725000D01*
X103762500Y-83337500D02*
X103837500Y-83337500D01*
%TO.N,VCC*%
D43*
X85350000Y-181500000D02*
X97100000Y-181500000D01*
X69980000Y-166630000D02*
X69730000Y-166880000D01*
X85275000Y-178925000D02*
X85200000Y-178925000D01*
X85200000Y-178925000D02*
X85200000Y-181350000D01*
X97100000Y-179150000D02*
X96975000Y-179025000D01*
X77830000Y-166630000D02*
X69980000Y-166630000D01*
X206620000Y-79500000D02*
X207690000Y-79500000D01*
X84655000Y-173455000D02*
X87700000Y-176500000D01*
X87700000Y-176500000D02*
X85275000Y-178925000D01*
X75327500Y-173455000D02*
X84655000Y-173455000D01*
X96975000Y-179025000D02*
X97200000Y-178800000D01*
X203910000Y-76790000D02*
X206620000Y-79500000D01*
X97100000Y-181500000D02*
X97100000Y-179150000D01*
X69960000Y-76790000D02*
X203910000Y-76790000D01*
X69730000Y-166880000D02*
X69730000Y-77020000D01*
X69730000Y-77020000D02*
X69960000Y-76790000D01*
X85200000Y-181350000D02*
X85350000Y-181500000D01*
X87700000Y-176500000D02*
X77830000Y-166630000D01*
X97200000Y-178800000D02*
X100700000Y-178800000D01*
%TO.N,GND*%
D39*
X233060000Y-100960000D02*
X230870000Y-100960000D01*
X152575000Y-151117590D02*
X153040202Y-150652388D01*
X146640000Y-106470000D02*
X146530000Y-106360000D01*
X236350000Y-135000000D02*
X237407500Y-133942500D01*
X239075000Y-151232410D02*
X240462590Y-152620000D01*
X155000000Y-143000000D02*
X154075000Y-143000000D01*
X230575000Y-118865000D02*
X230410000Y-118700000D01*
X153040202Y-150652388D02*
X153206196Y-150652388D01*
X152575000Y-151925000D02*
X152575000Y-151117590D01*
X146075000Y-151925000D02*
X146075000Y-150965000D01*
X149230000Y-106470000D02*
X146640000Y-106470000D01*
X151000000Y-117190000D02*
X151000000Y-116420000D01*
X240500000Y-83000000D02*
X247000000Y-83000000D01*
X240428529Y-141500000D02*
X240298529Y-141370000D01*
X93220000Y-174580000D02*
X93220000Y-174220000D01*
X154170000Y-105200000D02*
X154170000Y-103630000D01*
X215325000Y-88500000D02*
X215325000Y-85085000D01*
X165325000Y-140625000D02*
X165030000Y-140920000D01*
X238000000Y-99690000D02*
X238000000Y-98070000D01*
X154170000Y-103630000D02*
X154390000Y-103410000D01*
X146075000Y-150965000D02*
X146400000Y-150640000D01*
X240298529Y-141370000D02*
X239538242Y-141370000D01*
X143650000Y-148000000D02*
X142390000Y-148000000D01*
X235850000Y-135000000D02*
X236350000Y-135000000D01*
X232030000Y-118865000D02*
X230575000Y-118865000D01*
X232575000Y-139075000D02*
X232575000Y-138255000D01*
X75327500Y-178535000D02*
X77042500Y-180250000D01*
X154075000Y-143000000D02*
X153725000Y-142650000D01*
X151000000Y-116420000D02*
X151760000Y-115660000D01*
X239075000Y-150425000D02*
X239075000Y-151232410D01*
X123560000Y-177460000D02*
X123560000Y-178440000D01*
X144420000Y-118460000D02*
X144320000Y-118560000D01*
X100700000Y-174200000D02*
X100700000Y-173050000D01*
X220087500Y-141142500D02*
X220580000Y-140650000D01*
X122600000Y-176500000D02*
X123560000Y-177460000D01*
X223800000Y-157400000D02*
X222330000Y-158870000D01*
X146060000Y-118460000D02*
X144420000Y-118460000D01*
X165325000Y-139000000D02*
X165325000Y-140625000D01*
X142390000Y-148000000D02*
X142270000Y-147880000D01*
X232575000Y-149395000D02*
X234110000Y-147860000D01*
X232575000Y-138255000D02*
X231890000Y-137570000D01*
X146075000Y-141965000D02*
X146310000Y-142200000D01*
X230870000Y-100960000D02*
X230810000Y-100900000D01*
X91300000Y-176500000D02*
X93220000Y-174580000D01*
X151500000Y-86080000D02*
X148830000Y-86080000D01*
X247000000Y-83000000D02*
X247500000Y-82500000D01*
X240462590Y-152620000D02*
X240579101Y-152620000D01*
X241500000Y-141500000D02*
X240428529Y-141500000D01*
X100700000Y-173050000D02*
X99390000Y-171740000D01*
X236970000Y-117595000D02*
X236970000Y-115960000D01*
X236970000Y-115960000D02*
X237180000Y-115750000D01*
X77042500Y-180250000D02*
X77740000Y-180250000D01*
X232575000Y-150425000D02*
X232575000Y-149395000D01*
X146075000Y-140575000D02*
X146075000Y-141965000D01*
X238000000Y-98070000D02*
X238010000Y-98060000D01*
X220087500Y-142087500D02*
X220087500Y-141142500D01*
X215325000Y-85085000D02*
X215330000Y-85080000D01*
X222330000Y-158870000D02*
X221750000Y-158870000D01*
X239538242Y-141370000D02*
X239389238Y-141519004D01*
%TO.N,/RB_VCAP1*%
X152080000Y-153590000D02*
X152080000Y-151930000D01*
X152080000Y-151930000D02*
X152075000Y-151925000D01*
%TO.N,/TOGGLE_SW*%
X230150000Y-146000000D02*
X228590000Y-146000000D01*
X240500000Y-78000000D02*
X240500000Y-81450000D01*
X238950000Y-84420000D02*
X238960000Y-84430000D01*
X238950000Y-83000000D02*
X238950000Y-84420000D01*
X254000000Y-78000000D02*
X247500000Y-78000000D01*
X247500000Y-78000000D02*
X240500000Y-78000000D01*
X240500000Y-81450000D02*
X238950000Y-83000000D01*
%TO.N,Net-(D1-A)*%
X94175000Y-82425000D02*
X102850000Y-82425000D01*
X102850000Y-82425000D02*
X103762500Y-81512500D01*
%TO.N,Net-(D2-A)*%
D40*
X270000000Y-87500000D02*
X270000000Y-80000000D01*
%TO.N,Net-(D3-A)*%
X269825000Y-95675000D02*
X270500000Y-95000000D01*
X269825000Y-102000000D02*
X269825000Y-95675000D01*
%TO.N,Net-(D4-A)*%
D39*
X269825000Y-110675000D02*
X270500000Y-110000000D01*
D40*
X269825000Y-117000000D02*
X269825000Y-110675000D01*
%TO.N,Net-(D5-A)*%
X270500000Y-124500000D02*
X270500000Y-130825000D01*
D39*
X270500000Y-130825000D02*
X270325000Y-131000000D01*
%TO.N,/H723_FDCAN2_RX*%
X233060000Y-103500000D02*
X234690000Y-103500000D01*
X78620000Y-94120000D02*
X78580000Y-94080000D01*
X78580000Y-94080000D02*
X75500000Y-94080000D01*
X234690000Y-103500000D02*
X234710000Y-103480000D01*
%TO.N,/H723_FDCAN1_RX*%
D40*
X149230000Y-109010000D02*
X150960000Y-109010000D01*
X71860000Y-89800000D02*
X72660000Y-89000000D01*
X71760000Y-89800000D02*
X71860000Y-89800000D01*
X72660000Y-89000000D02*
X75500000Y-89000000D01*
X71580000Y-89980000D02*
X71760000Y-89800000D01*
X150960000Y-109010000D02*
X150980000Y-109030000D01*
%TO.N,/H723_FDCAN1_TX*%
D39*
X73340000Y-86460000D02*
X75500000Y-86460000D01*
X72450000Y-87350000D02*
X73340000Y-86460000D01*
X150950000Y-105200000D02*
X151010000Y-105260000D01*
X149230000Y-105200000D02*
X150950000Y-105200000D01*
%TO.N,/H723_FDCAN2_TX*%
D40*
X78550000Y-91540000D02*
X75500000Y-91540000D01*
X233060000Y-99690000D02*
X234980000Y-99690000D01*
X78610000Y-91600000D02*
X78550000Y-91540000D01*
X234980000Y-99690000D02*
X234990000Y-99680000D01*
%TO.N,/RB_SWDIO*%
D39*
X93520000Y-117770000D02*
X93590000Y-117840000D01*
X75500000Y-117770000D02*
X93520000Y-117770000D01*
X153310000Y-143500000D02*
X155000000Y-143500000D01*
%TO.N,+3.3V*%
D40*
X100700000Y-176500000D02*
X107000000Y-176500000D01*
X78100000Y-129230000D02*
X78110000Y-129220000D01*
X78110000Y-129220000D02*
X78110000Y-128870000D01*
X75500000Y-133000000D02*
X75500000Y-132960000D01*
X70860000Y-111470000D02*
X72180000Y-110150000D01*
X107000000Y-176500000D02*
X119000000Y-176500000D01*
X231300000Y-102230000D02*
X229330000Y-104200000D01*
X229330000Y-104200000D02*
X229330000Y-105150000D01*
X72180000Y-110150000D02*
X75500000Y-110150000D01*
X119000000Y-176500000D02*
X117545000Y-175045000D01*
X75500000Y-110150000D02*
X75500000Y-109370000D01*
X144040000Y-119730000D02*
X142590000Y-118280000D01*
X102312500Y-83337500D02*
X75500000Y-110150000D01*
X117545000Y-175045000D02*
X75500000Y-133000000D01*
X233060000Y-102230000D02*
X231300000Y-102230000D01*
X103762500Y-83337500D02*
X102312500Y-83337500D01*
X229330000Y-120135000D02*
X232030000Y-120135000D01*
X78110000Y-128870000D02*
X76650000Y-127410000D01*
X70860000Y-125120000D02*
X70860000Y-111470000D01*
X76650000Y-127410000D02*
X73150000Y-127410000D01*
X73150000Y-127410000D02*
X70860000Y-125120000D01*
X76070000Y-110150000D02*
X75500000Y-110150000D01*
X119000000Y-176500000D02*
X119000000Y-174870000D01*
%TO.N,/RB_SWCLK*%
D39*
X98890000Y-112560000D02*
X98760000Y-112690000D01*
X153075000Y-138185000D02*
X153050000Y-138160000D01*
X153075000Y-140575000D02*
X153075000Y-138185000D01*
X98760000Y-112690000D02*
X75500000Y-112690000D01*
%TO.N,/RB_SWO*%
X150050000Y-140550000D02*
X150050000Y-137480000D01*
X87450000Y-122850000D02*
X75500000Y-122850000D01*
X150075000Y-140575000D02*
X150050000Y-140550000D01*
X87550000Y-122750000D02*
X87450000Y-122850000D01*
%TO.N,/ND_SWDIO*%
X240080000Y-142000000D02*
X240050000Y-141970000D01*
X78300000Y-140630000D02*
X78020000Y-140630000D01*
X78020000Y-140630000D02*
X77970000Y-140580000D01*
X77970000Y-140580000D02*
X75500000Y-140580000D01*
X241500000Y-142000000D02*
X240080000Y-142000000D01*
%TO.N,/ND_SWO*%
X236575000Y-138267590D02*
X236575000Y-139075000D01*
X243360000Y-137280000D02*
X237562590Y-137280000D01*
X75500000Y-145660000D02*
X78540000Y-145660000D01*
X237562590Y-137280000D02*
X236575000Y-138267590D01*
%TO.N,/ND_SWCLK*%
X73000000Y-135500000D02*
X72960000Y-135540000D01*
X75500000Y-135500000D02*
X73000000Y-135500000D01*
X239700000Y-138950000D02*
X239575000Y-139075000D01*
X240960000Y-138950000D02*
X239700000Y-138950000D01*
%TO.N,/BNO_RST*%
X236075000Y-140895000D02*
X236075000Y-139075000D01*
X233680000Y-141310000D02*
X235660000Y-141310000D01*
X193685000Y-111945000D02*
X193730000Y-111990000D01*
X235660000Y-141310000D02*
X236075000Y-140895000D01*
X190100000Y-111945000D02*
X193685000Y-111945000D01*
%TO.N,/I2C1_SCL*%
X233575000Y-137865000D02*
X233575000Y-139075000D01*
X233672857Y-137767143D02*
X233575000Y-137865000D01*
X211580000Y-109380000D02*
X211660000Y-109460000D01*
X207875000Y-109380000D02*
X211580000Y-109380000D01*
X233672857Y-136694103D02*
X233672857Y-137767143D01*
%TO.N,/I2C1_SDA*%
X210720000Y-106840000D02*
X210780000Y-106900000D01*
X233070000Y-137220000D02*
X233070000Y-139070000D01*
X233070000Y-139070000D02*
X233075000Y-139075000D01*
X207875000Y-106840000D02*
X210720000Y-106840000D01*
%TO.N,/BNO_INT*%
X235640560Y-137550560D02*
X235575000Y-137616120D01*
X235575000Y-137616120D02*
X235575000Y-139075000D01*
X207875000Y-104300000D02*
X212290000Y-104300000D01*
X212290000Y-104300000D02*
X212300000Y-104310000D01*
%TO.N,/UART_TX_1*%
X141770000Y-150000000D02*
X141750000Y-150020000D01*
X115700000Y-144210000D02*
X115280000Y-144210000D01*
X115070000Y-144000000D02*
X113500000Y-144000000D01*
X143650000Y-150000000D02*
X141770000Y-150000000D01*
X115280000Y-144210000D02*
X115070000Y-144000000D01*
%TO.N,/UART_RX_1*%
X116000000Y-146540000D02*
X113500000Y-146540000D01*
X116320000Y-146610000D02*
X116070000Y-146610000D01*
X116070000Y-146610000D02*
X116000000Y-146540000D01*
X145575000Y-151925000D02*
X144615000Y-151925000D01*
X144615000Y-151925000D02*
X144610000Y-151930000D01*
%TO.N,/UART_RX_2*%
D40*
X269500000Y-146500000D02*
X266260000Y-146500000D01*
D39*
X266260000Y-146500000D02*
X266240000Y-146480000D01*
X232075000Y-150425000D02*
X232075000Y-149025000D01*
X232075000Y-149025000D02*
X232040000Y-148990000D01*
%TO.N,/UART_TX_2*%
D40*
X269500000Y-143960000D02*
X266280000Y-143960000D01*
D39*
X230160000Y-148510000D02*
X230150000Y-148500000D01*
X231400000Y-148510000D02*
X230160000Y-148510000D01*
%TO.N,/SERVO_PWM*%
X75500000Y-160080000D02*
X75460000Y-160080000D01*
X72600000Y-152810000D02*
X74240000Y-151170000D01*
X75460000Y-160080000D02*
X72600000Y-157220000D01*
X147570000Y-149380000D02*
X148075000Y-149885000D01*
X148075000Y-149885000D02*
X148075000Y-151925000D01*
X146300000Y-149380000D02*
X147570000Y-149380000D01*
X74240000Y-151170000D02*
X90360000Y-151170000D01*
X72600000Y-157220000D02*
X72600000Y-152810000D01*
X143190000Y-152490000D02*
X146300000Y-149380000D01*
%TO.N,Net-(J11-Pin_3)*%
X212770000Y-79500000D02*
X206175000Y-86095000D01*
X206175000Y-86095000D02*
X206175000Y-88500000D01*
%TO.N,/US_TRIG*%
X238060000Y-148510000D02*
X238190000Y-148640000D01*
X238850000Y-149080000D02*
X238850000Y-148380000D01*
X238075000Y-149617590D02*
X238075000Y-150425000D01*
X210230000Y-79500000D02*
X210230000Y-81170000D01*
X238190000Y-149502590D02*
X238075000Y-149617590D01*
X210230000Y-81170000D02*
X210240735Y-81180735D01*
X238190000Y-148380000D02*
X238060000Y-148510000D01*
X238190000Y-148640000D02*
X238190000Y-149502590D01*
X238850000Y-148380000D02*
X238190000Y-148380000D01*
%TO.N,/US_ECHO*%
X232460000Y-140340000D02*
X234710000Y-140340000D01*
X208000000Y-88500000D02*
X213500000Y-88500000D01*
X213500000Y-93940000D02*
X213550000Y-93990000D01*
X213500000Y-88500000D02*
X213500000Y-93940000D01*
X235075000Y-139975000D02*
X235075000Y-139075000D01*
X231500000Y-140330000D02*
X232450000Y-140330000D01*
X234710000Y-140340000D02*
X235075000Y-139975000D01*
X232450000Y-140330000D02*
X232460000Y-140340000D01*
%TO.N,/RB_BOOT0*%
X147575000Y-139155000D02*
X147570000Y-139150000D01*
X163500000Y-139000000D02*
X161880000Y-139000000D01*
X161880000Y-139000000D02*
X161840000Y-138960000D01*
X147575000Y-140575000D02*
X147575000Y-139155000D01*
%TO.N,/PB2_2*%
X237580000Y-149190000D02*
X237580000Y-150420000D01*
X220087500Y-145417500D02*
X220100000Y-145430000D01*
X237580000Y-150420000D02*
X237575000Y-150425000D01*
X220087500Y-143912500D02*
X220087500Y-145417500D01*
%TO.N,/LED_LEFT*%
X268175000Y-87500000D02*
X266600000Y-87500000D01*
%TO.N,/LED_RIGHT*%
X231061470Y-148000000D02*
X230150000Y-148000000D01*
X268000000Y-102000000D02*
X266000000Y-102000000D01*
X231570735Y-147490735D02*
X231061470Y-148000000D01*
X266000000Y-102000000D02*
X265970000Y-101970000D01*
%TO.N,/LED_BRAKE*%
X233560000Y-150440000D02*
X233575000Y-150425000D01*
X268000000Y-117000000D02*
X266410000Y-117000000D01*
X234340000Y-152220000D02*
X233560000Y-151440000D01*
X233560000Y-151440000D02*
X233560000Y-150440000D01*
%TO.N,/LED_STATUS*%
X234060000Y-149080000D02*
X234060000Y-150410000D01*
X267210000Y-131000000D02*
X267170000Y-131040000D01*
X268500000Y-131000000D02*
X267210000Y-131000000D01*
X234060000Y-150410000D02*
X234075000Y-150425000D01*
%TO.N,/F446_CAN1_RX*%
X156358530Y-144500000D02*
X155000000Y-144500000D01*
X156694265Y-144164265D02*
X156358530Y-144500000D01*
X146060000Y-121000000D02*
X147730000Y-121000000D01*
%TO.N,/F446_CAN1_TX*%
X157800000Y-143190000D02*
X156820000Y-143190000D01*
X147890000Y-117190000D02*
X147920000Y-117160000D01*
X146060000Y-117190000D02*
X147890000Y-117190000D01*
X156010000Y-144000000D02*
X155000000Y-144000000D01*
X156820000Y-143190000D02*
X156010000Y-144000000D01*
%TO.N,/F446_CAN2_TX*%
X242984440Y-142525560D02*
X241525560Y-142525560D01*
X232030000Y-117595000D02*
X234425000Y-117595000D01*
X241525560Y-142525560D02*
X241500000Y-142500000D01*
X234425000Y-117595000D02*
X234430000Y-117590000D01*
%TO.N,/F446_CAN2_RX*%
X239350000Y-143000000D02*
X241500000Y-143000000D01*
X239340000Y-142990000D02*
X239350000Y-143000000D01*
X232030000Y-121405000D02*
X232030000Y-123700000D01*
X238590000Y-143030000D02*
X238620000Y-143000000D01*
X238960000Y-143000000D02*
X238970000Y-142990000D01*
X232030000Y-123700000D02*
X232040000Y-123710000D01*
X238620000Y-143000000D02*
X238960000Y-143000000D01*
X238970000Y-142990000D02*
X239340000Y-142990000D01*
%TO.N,/CANL_1*%
X153600000Y-83540000D02*
X151500000Y-83540000D01*
X158790000Y-107740000D02*
X158820000Y-107770000D01*
X151000000Y-119730000D02*
X158595000Y-119730000D01*
X154170000Y-107740000D02*
X158790000Y-107740000D01*
X155630000Y-85570000D02*
X153600000Y-83540000D01*
X152530000Y-107740000D02*
X152520000Y-107750000D01*
X162370000Y-116770000D02*
X159727500Y-119412500D01*
X159727500Y-119412500D02*
X158912500Y-119412500D01*
X158595000Y-119730000D02*
X158912500Y-119412500D01*
X155630000Y-85740000D02*
X155630000Y-85570000D01*
X154170000Y-107740000D02*
X152530000Y-107740000D01*
%TO.N,/CANH_1*%
X160262500Y-117587500D02*
X158912500Y-117587500D01*
X154170000Y-106470000D02*
X156670000Y-106470000D01*
X153510000Y-81000000D02*
X151500000Y-81000000D01*
X154567410Y-106470000D02*
X156700000Y-104337410D01*
X151000000Y-118460000D02*
X158040000Y-118460000D01*
X154170000Y-106470000D02*
X154567410Y-106470000D01*
X161660000Y-116190000D02*
X160262500Y-117587500D01*
X156700000Y-104337410D02*
X156700000Y-104040000D01*
X158040000Y-118460000D02*
X158912500Y-117587500D01*
X156700000Y-84190000D02*
X153510000Y-81000000D01*
%TO.N,/CANH_2*%
X237247500Y-118587500D02*
X236970000Y-118865000D01*
X238372500Y-100587500D02*
X238000000Y-100960000D01*
X244500000Y-118587500D02*
X237247500Y-118587500D01*
X244500000Y-118587500D02*
X247077500Y-118587500D01*
X245317500Y-100587500D02*
X244500000Y-100587500D01*
X244500000Y-100587500D02*
X238372500Y-100587500D01*
X247077500Y-118587500D02*
X247080000Y-118590000D01*
X247140000Y-102410000D02*
X245317500Y-100587500D01*
%TO.N,/CANL_2*%
X244500000Y-102412500D02*
X238182500Y-102412500D01*
X244500000Y-120412500D02*
X237247500Y-120412500D01*
X244500000Y-120412500D02*
X246487500Y-120412500D01*
X238182500Y-102412500D02*
X238000000Y-102230000D01*
X246250000Y-103440000D02*
X245222500Y-102412500D01*
X237247500Y-120412500D02*
X236970000Y-120135000D01*
X246487500Y-120412500D02*
X246520000Y-120380000D01*
X245222500Y-102412500D02*
X244500000Y-102412500D01*
%TO.N,+3.3V*%
D40*
X146140000Y-107740000D02*
X149230000Y-107740000D01*
%TO.N,/ADC_STEER*%
D39*
X144890000Y-107140000D02*
X164290000Y-107140000D01*
%TO.N,+3.3V*%
D40*
X142590000Y-111290000D02*
X142990000Y-110890000D01*
X146060000Y-119730000D02*
X144040000Y-119730000D01*
X145550000Y-137175000D02*
X145550000Y-140550000D01*
X145550000Y-140550000D02*
X145575000Y-140575000D01*
X84050000Y-124300000D02*
X78100000Y-130250000D01*
X78100000Y-130250000D02*
X78100000Y-129230000D01*
X100375000Y-124300000D02*
X84050000Y-124300000D01*
X101575000Y-125500000D02*
X100375000Y-124300000D01*
X142590000Y-118280000D02*
X142590000Y-111290000D01*
X93815000Y-149685000D02*
X78100000Y-133970000D01*
X118600000Y-103150000D02*
X118600000Y-124900000D01*
X115400000Y-128100000D02*
X114300000Y-129200000D01*
%TD*%
M02*
