%TF.GenerationSoftware,KiCad,Pcbnew,10.0.5*%
%TF.CreationDate,2026-08-13T15:32:45+09:00*%
%TF.ProjectId,rear_node_board,72656172-5f6e-46f6-9465-5f626f617264,rev?*%
%TF.SameCoordinates,Original*%
%TF.FileFunction,Copper,L4,Bot*%
%TF.FilePolarity,Positive*%
%FSLAX46Y46*%
G04 Gerber Fmt 4.6, Leading zero omitted, Abs format (unit mm)*
G04 Created by KiCad (PCBNEW 10.0.5) date 2026-08-13 15:32:45*
%MOMM*%
%LPD*%
G01*
G04 APERTURE LIST*
G04 Aperture macros list*
%AMRoundRect*
0 Rectangle with rounded corners*
0 $1 Rounding radius*
0 $2 $3 $4 $5 $6 $7 $8 $9 X,Y pos of 4 corners*
0 Add a 4 corners polygon primitive as box body*
4,1,4,$2,$3,$4,$5,$6,$7,$8,$9,$2,$3,0*
0 Add four circle primitives for the rounded corners*
1,1,$1+$1,$2,$3*
1,1,$1+$1,$4,$5*
1,1,$1+$1,$6,$7*
1,1,$1+$1,$8,$9*
0 Add four rect primitives between the rounded corners*
20,1,$1+$1,$2,$3,$4,$5,0*
20,1,$1+$1,$4,$5,$6,$7,0*
20,1,$1+$1,$6,$7,$8,$9,0*
20,1,$1+$1,$8,$9,$2,$3,0*%
G04 Aperture macros list end*
%TA.AperFunction,ComponentPad*%
%ADD10C,1.700000*%
%TD*%
%TA.AperFunction,ComponentPad*%
%ADD11R,1.700000X1.700000*%
%TD*%
%TA.AperFunction,ComponentPad*%
%ADD12R,1.500000X1.500000*%
%TD*%
%TA.AperFunction,ComponentPad*%
%ADD13C,1.500000*%
%TD*%
%TA.AperFunction,ComponentPad*%
%ADD14RoundRect,0.250000X-1.050000X1.050000X-1.050000X-1.050000X1.050000X-1.050000X1.050000X1.050000X0*%
%TD*%
%TA.AperFunction,ComponentPad*%
%ADD15C,2.600000*%
%TD*%
%TA.AperFunction,ComponentPad*%
%ADD16R,1.800000X1.800000*%
%TD*%
%TA.AperFunction,ComponentPad*%
%ADD17C,1.800000*%
%TD*%
%TA.AperFunction,ComponentPad*%
%ADD18C,2.000000*%
%TD*%
%TA.AperFunction,ViaPad*%
%ADD19C,0.600000*%
%TD*%
%TA.AperFunction,Conductor*%
%ADD20C,0.200000*%
%TD*%
G04 APERTURE END LIST*
D10*
%TO.P,front2,6,Pin_6_6*%
%TO.N,Net-(front2-Pin_6)*%
X260100000Y-145370000D03*
%TO.P,front2,5,Pin_5_5*%
%TO.N,Net-(front2-Pin_5)*%
X260100000Y-147910000D03*
%TO.P,front2,4,Pin_4_4*%
%TO.N,Net-(front2-Pin_4)*%
X260100000Y-150450000D03*
%TO.P,front2,3,Pin_3_3*%
%TO.N,Net-(front2-Pin_3)*%
X260100000Y-152990000D03*
%TO.P,front2,2,Pin_2_2*%
%TO.N,Net-(front2-Pin_2)*%
X260100000Y-155530000D03*
D11*
%TO.P,front2,1,Pin_1_1*%
%TO.N,Net-(front2-Pin_1)*%
X260100000Y-158070000D03*
%TD*%
D12*
%TO.P,VR1,1,CCW_1*%
%TO.N,+3.3V*%
X118600000Y-103150000D03*
D13*
%TO.P,VR1,2,WIPER_2*%
%TO.N,/ADC_STEER*%
X121100000Y-100650000D03*
%TO.P,VR1,3,CW_3*%
%TO.N,GND*%
X123600000Y-103150000D03*
%TD*%
D11*
%TO.P,DHT1,1,Pin_1_1*%
%TO.N,/DHT11_DATA*%
X99035000Y-125500000D03*
D10*
%TO.P,DHT1,2,Pin_2_2*%
%TO.N,+3.3V*%
X101575000Y-125500000D03*
%TO.P,DHT1,3,Pin_3_3*%
%TO.N,GND*%
X104115000Y-125500000D03*
%TD*%
D11*
%TO.P,ADC_BRAKE1,1,Pin_1_1*%
%TO.N,+3.3V*%
X132050000Y-81025000D03*
D10*
%TO.P,ADC_BRAKE1,2,Pin_2_2*%
%TO.N,/ADC_BRAKE*%
X132050000Y-83565000D03*
%TD*%
D11*
%TO.P,ACCEL1,1,Pin_1_1*%
%TO.N,+3.3V*%
X118400000Y-80725000D03*
D10*
%TO.P,ACCEL1,2,Pin_2_2*%
%TO.N,/ADC_ACCEL*%
X118400000Y-83265000D03*
%TD*%
D11*
%TO.P,J6,1,Pin_1_1*%
%TO.N,unconnected-(J6-Pin_1-Pad1)*%
X190100000Y-104325000D03*
D10*
%TO.P,J6,2,Pin_2_2*%
%TO.N,unconnected-(J6-Pin_2-Pad2)*%
X190100000Y-106865000D03*
%TO.P,J6,3,Pin_3_3*%
%TO.N,unconnected-(J6-Pin_3-Pad3)*%
X190100000Y-109405000D03*
%TO.P,J6,4,Pin_4_4*%
%TO.N,/BNO_RST*%
X190100000Y-111945000D03*
%TO.P,J6,5,Pin_5_5*%
%TO.N,unconnected-(J6-Pin_5-Pad5)*%
X190100000Y-114485000D03*
%TO.P,J6,6,Pin_6_6*%
%TO.N,unconnected-(J6-Pin_6-Pad6)*%
X190100000Y-117025000D03*
%TD*%
D11*
%TO.P,J8,1,Pin_1_1*%
%TO.N,/UART_TX_1*%
X113500000Y-144000000D03*
D10*
%TO.P,J8,2,Pin_2_2*%
%TO.N,/UART_RX_1*%
X113500000Y-146540000D03*
%TO.P,J8,3,Pin_3_3*%
%TO.N,GND*%
X113500000Y-149080000D03*
%TD*%
D11*
%TO.P,J5,1,Pin_1_1*%
%TO.N,/CANH_1*%
X151500000Y-81000000D03*
D10*
%TO.P,J5,2,Pin_2_2*%
%TO.N,/CANL_1*%
X151500000Y-83540000D03*
%TO.P,J5,3,Pin_3_3*%
%TO.N,GND*%
X151500000Y-86080000D03*
%TD*%
D11*
%TO.P,J7,1,Pin_1_1*%
%TO.N,/BNO_INT*%
X207875000Y-104300000D03*
D10*
%TO.P,J7,2,Pin_2_2*%
%TO.N,/I2C1_SDA*%
X207875000Y-106840000D03*
%TO.P,J7,3,Pin_3_3*%
%TO.N,/I2C1_SCL*%
X207875000Y-109380000D03*
%TO.P,J7,4,Pin_4_4*%
%TO.N,GND*%
X207875000Y-111920000D03*
%TO.P,J7,5,Pin_5_5*%
%TO.N,unconnected-(J7-Pin_5-Pad5)*%
X207875000Y-114460000D03*
%TO.P,J7,6,Pin_6_6*%
%TO.N,+3.3V*%
X207875000Y-117000000D03*
%TD*%
D11*
%TO.P,J2,1,Pin_1_1*%
%TO.N,/H723_FDCAN1_TX*%
X75500000Y-86460000D03*
D10*
%TO.P,J2,2,Pin_2_2*%
%TO.N,/H723_FDCAN1_RX*%
X75500000Y-89000000D03*
%TO.P,J2,3,Pin_3_3*%
%TO.N,/H723_FDCAN2_TX*%
X75500000Y-91540000D03*
%TO.P,J2,4,Pin_4_4*%
%TO.N,/H723_FDCAN2_RX*%
X75500000Y-94080000D03*
%TO.P,J2,5,Pin_5_5*%
%TO.N,GND*%
X75500000Y-96620000D03*
%TO.P,J2,6,Pin_6_6*%
X75500000Y-99160000D03*
%TD*%
D11*
%TO.P,J11,1,Pin_1_1*%
%TO.N,VCC*%
X207690000Y-79500000D03*
D10*
%TO.P,J11,2,Pin_2_2*%
%TO.N,/US_TRIG*%
X210230000Y-79500000D03*
%TO.P,J11,3,Pin_3_3*%
%TO.N,Net-(J11-Pin_3)*%
X212770000Y-79500000D03*
%TO.P,J11,4,Pin_4_4*%
%TO.N,GND*%
X215310000Y-79500000D03*
%TD*%
D14*
%TO.P,J1,1,Pin_1_1*%
%TO.N,VCC*%
X75327500Y-173455000D03*
D15*
%TO.P,J1,2,Pin_2_2*%
%TO.N,GND*%
X75327500Y-178535000D03*
%TD*%
D11*
%TO.P,J3,1,Pin_1_1*%
%TO.N,+3.3V*%
X75500000Y-110150000D03*
D10*
%TO.P,J3,2,Pin_2_2*%
%TO.N,/RB_SWCLK*%
X75500000Y-112690000D03*
%TO.P,J3,3,Pin_3_3*%
%TO.N,GND*%
X75500000Y-115230000D03*
%TO.P,J3,4,Pin_4_4*%
%TO.N,/RB_SWDIO*%
X75500000Y-117770000D03*
%TO.P,J3,5,Pin_5_5*%
%TO.N,/RB_NRST*%
X75500000Y-120310000D03*
%TO.P,J3,6,Pin_6_6*%
%TO.N,/RB_SWO*%
X75500000Y-122850000D03*
%TD*%
D16*
%TO.P,D3,1,K_1*%
%TO.N,GND*%
X267960000Y-95000000D03*
D17*
%TO.P,D3,2,A_2*%
%TO.N,Net-(D3-A)*%
X270500000Y-95000000D03*
%TD*%
D16*
%TO.P,D5,1,K_1*%
%TO.N,GND*%
X267960000Y-124500000D03*
D17*
%TO.P,D5,2,A_2*%
%TO.N,Net-(D5-A)*%
X270500000Y-124500000D03*
%TD*%
D11*
%TO.P,J4,1,Pin_1_1*%
%TO.N,+3.3V*%
X75500000Y-132960000D03*
D10*
%TO.P,J4,2,Pin_2_2*%
%TO.N,/ND_SWCLK*%
X75500000Y-135500000D03*
%TO.P,J4,3,Pin_3_3*%
%TO.N,GND*%
X75500000Y-138040000D03*
%TO.P,J4,4,Pin_4_4*%
%TO.N,/ND_SWDIO*%
X75500000Y-140580000D03*
%TO.P,J4,5,Pin_5_5*%
%TO.N,/ND_NRST*%
X75500000Y-143120000D03*
%TO.P,J4,6,Pin_6_6*%
%TO.N,/ND_SWO*%
X75500000Y-145660000D03*
%TD*%
D16*
%TO.P,D2,1,K_1*%
%TO.N,GND*%
X267460000Y-80000000D03*
D17*
%TO.P,D2,2,A_2*%
%TO.N,Net-(D2-A)*%
X270000000Y-80000000D03*
%TD*%
D16*
%TO.P,D4,1,K_1*%
%TO.N,GND*%
X267960000Y-110000000D03*
D17*
%TO.P,D4,2,A_2*%
%TO.N,Net-(D4-A)*%
X270500000Y-110000000D03*
%TD*%
D11*
%TO.P,J9,1,Pin_1_1*%
%TO.N,/UART_TX_2*%
X269500000Y-143960000D03*
D10*
%TO.P,J9,2,Pin_2_2*%
%TO.N,/UART_RX_2*%
X269500000Y-146500000D03*
%TO.P,J9,3,Pin_3_3*%
%TO.N,GND*%
X269500000Y-149040000D03*
%TD*%
D18*
%TO.P,SW1,1,1_1*%
%TO.N,/TOGGLE_SW*%
X247500000Y-78000000D03*
X254000000Y-78000000D03*
%TO.P,SW1,2,2_2*%
%TO.N,GND*%
X247500000Y-82500000D03*
X254000000Y-82500000D03*
%TD*%
D11*
%TO.P,J10,1,Pin_1_1*%
%TO.N,VCC*%
X75500000Y-155000000D03*
D10*
%TO.P,J10,2,Pin_2_2*%
%TO.N,GND*%
X75500000Y-157540000D03*
%TO.P,J10,3,Pin_3_3*%
%TO.N,/SERVO_PWM*%
X75500000Y-160080000D03*
%TD*%
D16*
%TO.P,D1,1,K_1*%
%TO.N,GND*%
X91635000Y-82425000D03*
D17*
%TO.P,D1,2,A_2*%
%TO.N,Net-(D1-A)*%
X94175000Y-82425000D03*
%TD*%
D19*
%TO.N,GND*%
X209300000Y-131750000D03*
%TO.N,/ADC_BRAKE*%
X208550000Y-137250000D03*
%TO.N,/ADC_ACCEL*%
X215600000Y-145350000D03*
%TO.N,GND*%
X211550000Y-135650000D03*
%TO.N,/ADC_BRAKE*%
X212400000Y-140500000D03*
%TO.N,GND*%
X223200000Y-115250000D03*
X146600000Y-125850000D03*
X148750000Y-113750000D03*
X132150000Y-164500000D03*
X134800000Y-154650000D03*
X135600000Y-160250000D03*
%TO.N,/RB_NRST*%
X121950000Y-141800000D03*
X79550000Y-120350000D03*
X131700000Y-149500000D03*
X145600000Y-145600000D03*
%TO.N,GND*%
X152900000Y-158200000D03*
X141250000Y-143900000D03*
X140800000Y-145400000D03*
X160500000Y-152450000D03*
X146700000Y-159200000D03*
X134750000Y-150700000D03*
X133950000Y-145250000D03*
X166300000Y-137650000D03*
X155100000Y-132750000D03*
X136100000Y-136400000D03*
X143750000Y-132700000D03*
X230250000Y-157250000D03*
X245850000Y-154050000D03*
X250250000Y-139650000D03*
X231650000Y-130850000D03*
X225800000Y-136700000D03*
X216550000Y-138500000D03*
X224050000Y-138800000D03*
X224400000Y-151250000D03*
X220400000Y-151900000D03*
X221550000Y-151000000D03*
%TO.N,/ND_NRST*%
X80450000Y-139900000D03*
X213500000Y-149900000D03*
X227900000Y-144100000D03*
X223350000Y-143050000D03*
%TO.N,GND*%
X215430000Y-155030000D03*
X241050000Y-159650000D03*
%TO.N,/RB_VCAP1*%
X155800000Y-156600000D03*
%TO.N,GND*%
X163880000Y-155770000D03*
%TO.N,/ADC_BRAKE*%
X226800000Y-144800000D03*
%TO.N,/ADC_ACCEL*%
X225600000Y-146030000D03*
%TO.N,/DHT11_DATA*%
X94500000Y-125650000D03*
X239050000Y-145600000D03*
%TO.N,/ACT_ENA*%
X251300000Y-159050000D03*
X236600000Y-153100000D03*
%TO.N,/ACT_ENB*%
X237400000Y-152750000D03*
X251300000Y-156000000D03*
%TO.N,/ACT_IN1*%
X243500000Y-149250000D03*
X251200000Y-152780000D03*
%TO.N,/ACT_IN2*%
X244400000Y-148800000D03*
X251300000Y-150150000D03*
%TO.N,/ACT_IN3*%
X244250000Y-147290000D03*
X250850000Y-147040000D03*
%TO.N,/ACT_IN4*%
X249200000Y-144600000D03*
X243400000Y-147050000D03*
%TO.N,/ADC_STEER*%
X231969265Y-144719265D03*
X204050000Y-146900000D03*
%TO.N,/ADC_ACCEL*%
X198944612Y-131158771D03*
%TO.N,/ADC_BRAKE*%
X199600000Y-130700000D03*
%TO.N,GND*%
X195450000Y-148050000D03*
X120100000Y-91250000D03*
X217250000Y-139500000D03*
X93220000Y-174220000D03*
X123560000Y-178440000D03*
X151760000Y-115660000D03*
X165030000Y-140920000D03*
X142270000Y-147880000D03*
X220580000Y-140650000D03*
X221750000Y-158870000D03*
X144320000Y-118560000D03*
X238010000Y-98060000D03*
X153206196Y-150652388D03*
X237407500Y-133942500D03*
X215330000Y-85080000D03*
X153725000Y-142650000D03*
X239389238Y-141519004D03*
X226960000Y-146630000D03*
X99390000Y-171740000D03*
X234110000Y-147860000D03*
X230410000Y-118700000D03*
X77740000Y-180250000D03*
X154390000Y-103410000D03*
X230810000Y-100900000D03*
X240579101Y-152620000D03*
X237180000Y-115750000D03*
X146530000Y-106360000D03*
X146310000Y-142200000D03*
X231890000Y-137570000D03*
X148830000Y-86080000D03*
X146400000Y-150640000D03*
%TO.N,/RB_VCAP1*%
X152080000Y-153590000D03*
%TO.N,/TOGGLE_SW*%
X228590000Y-146000000D03*
X238960000Y-84430000D03*
%TO.N,/H723_FDCAN2_RX*%
X234710000Y-103480000D03*
X78620000Y-94120000D03*
%TO.N,/H723_FDCAN1_RX*%
X71580000Y-89980000D03*
X150980000Y-109030000D03*
%TO.N,/H723_FDCAN1_TX*%
X151010000Y-105260000D03*
X72450000Y-87350000D03*
%TO.N,/H723_FDCAN2_TX*%
X234990000Y-99680000D03*
X78610000Y-91600000D03*
%TO.N,/RB_SWDIO*%
X93590000Y-117840000D03*
X153310000Y-143500000D03*
%TO.N,/RB_SWCLK*%
X153050000Y-138160000D03*
X98890000Y-112560000D03*
%TO.N,/RB_SWO*%
X87550000Y-122750000D03*
X150050000Y-137480000D03*
%TO.N,/ND_SWDIO*%
X240050000Y-141970000D03*
X78300000Y-140630000D03*
%TO.N,/ND_SWO*%
X243360000Y-137280000D03*
X78540000Y-145660000D03*
%TO.N,/ND_SWCLK*%
X72960000Y-135540000D03*
X240960000Y-138950000D03*
%TO.N,/BNO_RST*%
X193730000Y-111990000D03*
X233680000Y-141310000D03*
%TO.N,/I2C1_SCL*%
X233672857Y-136694103D03*
X211660000Y-109460000D03*
%TO.N,/I2C1_SDA*%
X210780000Y-106900000D03*
X233070000Y-137220000D03*
%TO.N,/BNO_INT*%
X212300000Y-104310000D03*
X235640560Y-137550560D03*
%TO.N,/UART_TX_1*%
X141750000Y-150020000D03*
X115700000Y-144210000D03*
%TO.N,/UART_RX_1*%
X144610000Y-151930000D03*
X116320000Y-146610000D03*
%TO.N,/UART_RX_2*%
X266240000Y-146480000D03*
X232040000Y-148990000D03*
%TO.N,/UART_TX_2*%
X231400000Y-148510000D03*
X266280000Y-143960000D03*
%TO.N,/SERVO_PWM*%
X143190000Y-152490000D03*
X90360000Y-151170000D03*
%TO.N,/US_TRIG*%
X238850000Y-149080000D03*
X210240735Y-81180735D03*
%TO.N,/US_ECHO*%
X213550000Y-93990000D03*
X231500000Y-140330000D03*
%TO.N,/RB_BOOT0*%
X161840000Y-138960000D03*
X147570000Y-139150000D03*
%TO.N,/PB2_2*%
X237580000Y-149190000D03*
X220100000Y-145430000D03*
%TO.N,/LED_LEFT*%
X266600000Y-87500000D03*
X228750000Y-148000000D03*
%TO.N,/LED_RIGHT*%
X265970000Y-101970000D03*
X231570735Y-147490735D03*
%TO.N,/LED_BRAKE*%
X234340000Y-152220000D03*
X266410000Y-117000000D03*
%TO.N,/LED_STATUS*%
X234060000Y-149080000D03*
X267170000Y-131040000D03*
%TO.N,/F446_CAN1_RX*%
X147730000Y-121000000D03*
X156694265Y-144164265D03*
%TO.N,/F446_CAN1_TX*%
X157800000Y-143190000D03*
X147920000Y-117160000D03*
%TO.N,/F446_CAN2_TX*%
X234430000Y-117590000D03*
X242984440Y-142525560D03*
%TO.N,/F446_CAN2_RX*%
X238590000Y-143030000D03*
X232040000Y-123710000D03*
%TO.N,/CANL_1*%
X155630000Y-85740000D03*
X162370000Y-116770000D03*
X158820000Y-107770000D03*
X152520000Y-107750000D03*
%TO.N,/CANH_1*%
X156700000Y-104040000D03*
X156670000Y-106470000D03*
X156700000Y-84190000D03*
X161660000Y-116190000D03*
%TO.N,/CANH_2*%
X247140000Y-102410000D03*
X247080000Y-118590000D03*
%TO.N,/CANL_2*%
X246520000Y-120380000D03*
X246250000Y-103440000D03*
%TD*%
%TO.N,/ND_NRST*%
D20*
X213500000Y-149900000D02*
X203500000Y-139900000D01*
%TO.N,/LED_LEFT*%
X250010000Y-101650000D02*
X264160000Y-87500000D01*
X250010000Y-125830000D02*
X250010000Y-101650000D01*
X228630000Y-147210000D02*
X250010000Y-125830000D01*
X228630000Y-147880000D02*
X228630000Y-147210000D01*
X264160000Y-87500000D02*
X266600000Y-87500000D01*
X228750000Y-148000000D02*
X228630000Y-147880000D01*
%TO.N,/ND_SWO*%
X265414215Y-168020000D02*
X273480000Y-159954215D01*
%TO.N,/RB_VCAP1*%
X155750000Y-156550000D02*
X155800000Y-156600000D01*
X155040000Y-156550000D02*
X155750000Y-156550000D01*
X155040000Y-156550000D02*
X152080000Y-153590000D01*
%TO.N,/LED_BRAKE*%
X272680000Y-123270000D02*
X266410000Y-117000000D01*
X272680000Y-147915686D02*
X272680000Y-123270000D01*
X234960000Y-151600000D02*
X268995686Y-151600000D01*
X268995686Y-151600000D02*
X272680000Y-147915686D01*
X234340000Y-152220000D02*
X234960000Y-151600000D01*
%TO.N,/LED_STATUS*%
X234640000Y-148500000D02*
X234060000Y-149080000D01*
X238601471Y-148480000D02*
X238581471Y-148500000D01*
X239118529Y-148500000D02*
X239098529Y-148480000D01*
X243851471Y-148500000D02*
X239118529Y-148500000D01*
X244151471Y-148200000D02*
X243851471Y-148500000D01*
X244948529Y-148500000D02*
X244648529Y-148200000D01*
X259063654Y-148500000D02*
X244948529Y-148500000D01*
X259623654Y-149060000D02*
X259063654Y-148500000D01*
X260576346Y-149060000D02*
X259623654Y-149060000D01*
X261136346Y-148500000D02*
X260576346Y-149060000D01*
X268413654Y-148500000D02*
X261136346Y-148500000D01*
X238581471Y-148500000D02*
X234640000Y-148500000D01*
X269976346Y-147890000D02*
X269023654Y-147890000D01*
X239098529Y-148480000D02*
X238601471Y-148480000D01*
X270586346Y-148500000D02*
X269976346Y-147890000D01*
X271530000Y-148500000D02*
X270586346Y-148500000D01*
X272280000Y-147750000D02*
X271530000Y-148500000D01*
X267170000Y-136930000D02*
X272280000Y-142040000D01*
X244648529Y-148200000D02*
X244151471Y-148200000D01*
X272280000Y-142040000D02*
X272280000Y-147750000D01*
X267170000Y-131040000D02*
X267170000Y-136930000D01*
X269023654Y-147890000D02*
X268413654Y-148500000D01*
%TO.N,/UART_RX_2*%
X232050000Y-148990000D02*
X232040000Y-148990000D01*
X235090000Y-145950000D02*
X232050000Y-148990000D01*
X238551471Y-145950000D02*
X235090000Y-145950000D01*
X238801471Y-146200000D02*
X238551471Y-145950000D01*
X239298529Y-146200000D02*
X238801471Y-146200000D01*
X239798529Y-145700000D02*
X239298529Y-146200000D01*
X256540000Y-146440000D02*
X255800000Y-145700000D01*
X259543654Y-146440000D02*
X256540000Y-146440000D01*
X260576346Y-146520000D02*
X259623654Y-146520000D01*
X260656346Y-146440000D02*
X260576346Y-146520000D01*
X266200000Y-146440000D02*
X260656346Y-146440000D01*
X259623654Y-146520000D02*
X259543654Y-146440000D01*
X266240000Y-146480000D02*
X266200000Y-146440000D01*
X255800000Y-145700000D02*
X239798529Y-145700000D01*
%TO.N,/ND_SWCLK*%
X79460000Y-129850000D02*
X130960000Y-78350000D01*
%TO.N,/TOGGLE_SW*%
X228590000Y-145450000D02*
X228590000Y-146000000D01*
X238960000Y-135080000D02*
X228590000Y-145450000D01*
X238960000Y-84430000D02*
X238960000Y-135080000D01*
%TO.N,/RB_SWDIO*%
X77300000Y-134130000D02*
X77300000Y-142878529D01*
X77300000Y-142878529D02*
X78121471Y-143700000D01*
X93590000Y-117840000D02*
X77300000Y-134130000D01*
X78121471Y-143700000D02*
X78618529Y-143700000D01*
X152660000Y-142850000D02*
X153310000Y-143500000D01*
X78618529Y-143700000D02*
X79468529Y-142850000D01*
%TO.N,/RB_SWCLK*%
X124490000Y-138160000D02*
X98890000Y-112560000D01*
X153050000Y-138160000D02*
X124490000Y-138160000D01*
%TO.N,/RB_SWO*%
X124530000Y-111960000D02*
X98340000Y-111960000D01*
X98340000Y-111960000D02*
X87550000Y-122750000D01*
%TO.N,/ND_SWO*%
X264640000Y-116000000D02*
X243360000Y-137280000D01*
X273480000Y-122655785D02*
X266824215Y-116000000D01*
X100900000Y-168020000D02*
X265414215Y-168020000D01*
X266824215Y-116000000D02*
X264640000Y-116000000D01*
X78540000Y-145660000D02*
X100900000Y-168020000D01*
X273480000Y-159954215D02*
X273480000Y-122655785D01*
%TO.N,/ND_SWCLK*%
X266570000Y-88378529D02*
X266570000Y-113057156D01*
X242844214Y-86900000D02*
X266848529Y-86900000D01*
X240960000Y-138667156D02*
X240960000Y-138950000D01*
X267200000Y-87748529D02*
X266570000Y-88378529D01*
X266570000Y-113057156D02*
X240960000Y-138667156D01*
X72710000Y-135290000D02*
X72710000Y-130870000D01*
X234294214Y-78350000D02*
X242844214Y-86900000D01*
X130960000Y-78350000D02*
X234294214Y-78350000D01*
X266848529Y-86900000D02*
X267200000Y-87251471D01*
X72960000Y-135540000D02*
X72710000Y-135290000D01*
X267200000Y-87251471D02*
X267200000Y-87748529D01*
X72710000Y-130870000D02*
X73730000Y-129850000D01*
X73730000Y-129850000D02*
X79460000Y-129850000D01*
%TO.N,/BNO_RST*%
X239560000Y-84181471D02*
X239208529Y-83830000D01*
X239208529Y-83830000D02*
X221890000Y-83830000D01*
X221890000Y-83830000D02*
X193730000Y-111990000D01*
X233680000Y-141310000D02*
X233681470Y-141310000D01*
X233681470Y-141310000D02*
X239560000Y-135431470D01*
X239560000Y-135431470D02*
X239560000Y-84181471D01*
%TO.N,/I2C1_SCL*%
X211660000Y-109460000D02*
X211660000Y-114681246D01*
X211660000Y-114681246D02*
X233672857Y-136694103D01*
%TO.N,/I2C1_SDA*%
X210780000Y-114930000D02*
X233070000Y-137220000D01*
X210780000Y-106900000D02*
X210780000Y-114930000D01*
%TO.N,/BNO_INT*%
X212300000Y-114210000D02*
X235640560Y-137550560D01*
X212300000Y-104310000D02*
X212300000Y-114210000D01*
%TO.N,/UART_TX_1*%
X138740000Y-147010000D02*
X116768529Y-147010000D01*
X115700000Y-146838529D02*
X115700000Y-144210000D01*
X116768529Y-147010000D02*
X116568529Y-147210000D01*
X116568529Y-147210000D02*
X116071471Y-147210000D01*
X116071471Y-147210000D02*
X115700000Y-146838529D01*
X141750000Y-150020000D02*
X138740000Y-147010000D01*
%TO.N,/UART_RX_1*%
X144610000Y-151930000D02*
X139290000Y-146610000D01*
X139290000Y-146610000D02*
X116320000Y-146610000D01*
%TO.N,/UART_TX_2*%
X235950000Y-143960000D02*
X231400000Y-148510000D01*
X266280000Y-143960000D02*
X235950000Y-143960000D01*
%TO.N,/SERVO_PWM*%
X90360000Y-151170000D02*
X103060000Y-151170000D01*
X141890000Y-153790000D02*
X143190000Y-152490000D01*
X103060000Y-151170000D02*
X105680000Y-153790000D01*
X105680000Y-153790000D02*
X141890000Y-153790000D01*
%TO.N,/US_TRIG*%
X232960000Y-151431471D02*
X234311471Y-150080000D01*
X242638529Y-161950000D02*
X245960000Y-158628529D01*
X193130000Y-127494215D02*
X227585785Y-161950000D01*
X210240735Y-81180735D02*
X193130000Y-98291470D01*
X235430735Y-154399264D02*
X232960000Y-151928529D01*
X227585785Y-161950000D02*
X242638529Y-161950000D01*
X245960000Y-158628529D02*
X245960000Y-158131471D01*
X242227793Y-154399264D02*
X235430735Y-154399264D01*
X245960000Y-158131471D02*
X242227793Y-154399264D01*
X234311471Y-150080000D02*
X237850000Y-150080000D01*
X237850000Y-150080000D02*
X238850000Y-149080000D01*
X232960000Y-151928529D02*
X232960000Y-151431471D01*
X193130000Y-98291470D02*
X193130000Y-127494215D01*
%TO.N,/US_ECHO*%
X210180000Y-97360000D02*
X210180000Y-119010000D01*
X213550000Y-93990000D02*
X210180000Y-97360000D01*
X210180000Y-119010000D02*
X231500000Y-140330000D01*
%TO.N,/RB_BOOT0*%
X147760000Y-138960000D02*
X147570000Y-139150000D01*
%TO.N,/PB2_2*%
X236480000Y-148960000D02*
X237350000Y-148960000D01*
X224350000Y-149680000D02*
X235760000Y-149680000D01*
X237350000Y-148960000D02*
X237580000Y-149190000D01*
X235760000Y-149680000D02*
X236480000Y-148960000D01*
X220100000Y-145430000D02*
X224350000Y-149680000D01*
%TO.N,/LED_RIGHT*%
X250430000Y-123970000D02*
X250530000Y-124070000D01*
X250530000Y-124070000D02*
X250530000Y-128531470D01*
X265970000Y-101970000D02*
X250460000Y-117480000D01*
X250530000Y-128531470D02*
X231570735Y-147490735D01*
X250430000Y-117480000D02*
X250430000Y-123970000D01*
X250460000Y-117480000D02*
X250430000Y-117480000D01*
%TO.N,/CANL_1*%
X162370000Y-111320000D02*
X162370000Y-116770000D01*
X156300000Y-102860000D02*
X156300000Y-86410000D01*
X158820000Y-107770000D02*
X162370000Y-111320000D01*
X156300000Y-86410000D02*
X155630000Y-85740000D01*
X152520000Y-107750000D02*
X151970000Y-107200000D01*
X151970000Y-107190000D02*
X156300000Y-102860000D01*
X151970000Y-107200000D02*
X151970000Y-107190000D01*
%TO.N,/CANH_1*%
X161660000Y-111460000D02*
X161660000Y-116190000D01*
X156670000Y-106470000D02*
X161660000Y-111460000D01*
X156700000Y-104040000D02*
X156700000Y-84190000D01*
%TO.N,/CANH_2*%
X247850000Y-103120000D02*
X247140000Y-102410000D01*
X247850000Y-117820000D02*
X247850000Y-103120000D01*
X247080000Y-118590000D02*
X247850000Y-117820000D01*
%TO.N,/CANL_2*%
X246250000Y-120110000D02*
X246250000Y-103440000D01*
X246520000Y-120380000D02*
X246250000Y-120110000D01*
%TO.N,/ND_SWDIO*%
X268518529Y-164350000D02*
X182865686Y-164350000D01*
X273080000Y-159788529D02*
X268518529Y-164350000D01*
X273080000Y-122821471D02*
X273080000Y-159788529D01*
X266658529Y-116400000D02*
X273080000Y-122821471D01*
X240050000Y-141970000D02*
X265620000Y-116400000D01*
X265620000Y-116400000D02*
X266658529Y-116400000D01*
X182865686Y-164350000D02*
X159145686Y-140630000D01*
%TO.N,/RB_SWO*%
X150050000Y-137480000D02*
X124530000Y-111960000D01*
%TO.N,/RB_BOOT0*%
X161840000Y-138960000D02*
X147760000Y-138960000D01*
%TO.N,/ND_NRST*%
X203500000Y-139900000D02*
X80450000Y-139900000D01*
%TO.N,/ND_SWDIO*%
X159145686Y-140630000D02*
X78300000Y-140630000D01*
%TO.N,/RB_SWDIO*%
X79468529Y-142850000D02*
X152660000Y-142850000D01*
%TD*%
M02*
