M48
; DRILL file KiCad 10.0.5 date 2026-08-13T15:32:48
; FORMAT={-:-/ absolute / metric / decimal}
; #@! TF.CreationDate,2026-08-13T15:32:48+09:00
; #@! TF.GenerationSoftware,Kicad,Pcbnew,10.0.5
; #@! TF.FileFunction,Plated,1,4,PTH
FMAT,2
METRIC
; #@! TA.AperFunction,Plated,PTH,ViaDrill
T1C0.300
; #@! TA.AperFunction,Plated,PTH,ComponentDrill
T2C0.900
; #@! TA.AperFunction,Plated,PTH,ComponentDrill
T3C1.000
; #@! TA.AperFunction,Plated,PTH,ComponentDrill
T4C1.100
; #@! TA.AperFunction,Plated,PTH,ComponentDrill
T5C1.300
%
G90
G05
T1
X71.58Y-89.98
X72.45Y-87.35
X72.96Y-135.54
X77.74Y-180.25
X78.3Y-140.63
X78.54Y-145.66
X78.61Y-91.6
X78.62Y-94.12
X79.55Y-120.35
X80.45Y-139.9
X87.55Y-122.75
X90.36Y-151.17
X93.22Y-174.22
X93.59Y-117.84
X94.5Y-125.65
X98.89Y-112.56
X99.39Y-171.74
X115.7Y-144.21
X116.32Y-146.61
X120.1Y-91.25
X121.95Y-141.8
X123.56Y-178.44
X131.7Y-149.5
X132.15Y-164.5
X133.95Y-145.25
X134.75Y-150.7
X134.8Y-154.65
X135.6Y-160.25
X136.1Y-136.4
X140.8Y-145.4
X141.25Y-143.9
X141.75Y-150.02
X142.27Y-147.88
X143.19Y-152.49
X143.75Y-132.7
X144.32Y-118.56
X144.61Y-151.93
X145.6Y-145.6
X146.31Y-142.2
X146.4Y-150.64
X146.53Y-106.36
X146.6Y-125.85
X146.7Y-159.2
X147.57Y-139.15
X147.73Y-121.0
X147.92Y-117.16
X148.75Y-113.75
X148.83Y-86.08
X150.05Y-137.48
X150.98Y-109.03
X151.01Y-105.26
X151.76Y-115.66
X152.08Y-153.59
X152.52Y-107.75
X152.9Y-158.2
X153.05Y-138.16
X153.206Y-150.652
X153.31Y-143.5
X153.725Y-142.65
X154.39Y-103.41
X155.1Y-132.75
X155.63Y-85.74
X155.8Y-156.6
X156.67Y-106.47
X156.694Y-144.164
X156.7Y-84.19
X156.7Y-104.04
X157.8Y-143.19
X158.82Y-107.77
X160.5Y-152.45
X161.66Y-116.19
X161.84Y-138.96
X162.37Y-116.77
X163.88Y-155.77
X165.03Y-140.92
X166.3Y-137.65
X193.73Y-111.99
X195.45Y-148.05
X198.945Y-131.159
X199.6Y-130.7
X204.05Y-146.9
X208.55Y-137.25
X209.3Y-131.75
X210.241Y-81.181
X210.78Y-106.9
X211.55Y-135.65
X211.66Y-109.46
X212.3Y-104.31
X212.4Y-140.5
X213.5Y-149.9
X213.55Y-93.99
X215.33Y-85.08
X215.43Y-155.03
X215.6Y-145.35
X216.55Y-138.5
X217.25Y-139.5
X220.1Y-145.43
X220.4Y-151.9
X220.58Y-140.65
X221.55Y-151.0
X221.75Y-158.87
X223.2Y-115.25
X223.35Y-143.05
X224.05Y-138.8
X224.4Y-151.25
X225.6Y-146.03
X225.8Y-136.7
X226.8Y-144.8
X226.96Y-146.63
X227.9Y-144.1
X228.59Y-146.0
X228.75Y-148.0
X230.25Y-157.25
X230.41Y-118.7
X230.81Y-100.9
X231.4Y-148.51
X231.5Y-140.33
X231.571Y-147.491
X231.65Y-130.85
X231.89Y-137.57
X231.969Y-144.719
X232.04Y-123.71
X232.04Y-148.99
X233.07Y-137.22
X233.673Y-136.694
X233.68Y-141.31
X234.06Y-149.08
X234.11Y-147.86
X234.34Y-152.22
X234.43Y-117.59
X234.71Y-103.48
X234.99Y-99.68
X235.641Y-137.551
X236.6Y-153.1
X237.18Y-115.75
X237.4Y-152.75
X237.407Y-133.942
X237.58Y-149.19
X238.01Y-98.06
X238.59Y-143.03
X238.85Y-149.08
X238.96Y-84.43
X239.05Y-145.6
X239.389Y-141.519
X240.05Y-141.97
X240.579Y-152.62
X240.96Y-138.95
X241.05Y-159.65
X242.984Y-142.526
X243.36Y-137.28
X243.4Y-147.05
X243.5Y-149.25
X244.25Y-147.29
X244.4Y-148.8
X245.85Y-154.05
X246.25Y-103.44
X246.52Y-120.38
X247.08Y-118.59
X247.14Y-102.41
X249.2Y-144.6
X250.25Y-139.65
X250.85Y-147.04
X251.2Y-152.78
X251.3Y-150.15
X251.3Y-156.0
X251.3Y-159.05
X265.97Y-101.97
X266.24Y-146.48
X266.28Y-143.96
X266.41Y-117.0
X266.6Y-87.5
X267.17Y-131.04
T2
X91.635Y-82.425
X94.175Y-82.425
X267.46Y-80.0
X267.96Y-95.0
X267.96Y-110.0
X267.96Y-124.5
X270.0Y-80.0
X270.5Y-95.0
X270.5Y-110.0
X270.5Y-124.5
T3
X75.5Y-86.46
X75.5Y-89.0
X75.5Y-91.54
X75.5Y-94.08
X75.5Y-96.62
X75.5Y-99.16
X75.5Y-110.15
X75.5Y-112.69
X75.5Y-115.23
X75.5Y-117.77
X75.5Y-120.31
X75.5Y-122.85
X75.5Y-132.96
X75.5Y-135.5
X75.5Y-138.04
X75.5Y-140.58
X75.5Y-143.12
X75.5Y-145.66
X75.5Y-155.0
X75.5Y-157.54
X75.5Y-160.08
X99.035Y-125.5
X101.575Y-125.5
X104.115Y-125.5
X113.5Y-144.0
X113.5Y-146.54
X113.5Y-149.08
X118.4Y-80.725
X118.4Y-83.265
X118.6Y-103.15
X121.1Y-100.65
X123.6Y-103.15
X132.05Y-81.025
X132.05Y-83.565
X151.5Y-81.0
X151.5Y-83.54
X151.5Y-86.08
X190.1Y-104.325
X190.1Y-106.865
X190.1Y-109.405
X190.1Y-111.945
X190.1Y-114.485
X190.1Y-117.025
X207.69Y-79.5
X207.875Y-104.3
X207.875Y-106.84
X207.875Y-109.38
X207.875Y-111.92
X207.875Y-114.46
X207.875Y-117.0
X210.23Y-79.5
X212.77Y-79.5
X215.31Y-79.5
X260.1Y-145.37
X260.1Y-147.91
X260.1Y-150.45
X260.1Y-152.99
X260.1Y-155.53
X260.1Y-158.07
X269.5Y-143.96
X269.5Y-146.5
X269.5Y-149.04
T4
X247.5Y-78.0
X247.5Y-82.5
X254.0Y-78.0
X254.0Y-82.5
T5
X75.328Y-173.455
X75.328Y-178.535
M30
