%TF.GenerationSoftware,KiCad,Pcbnew,10.0.5*%
%TF.CreationDate,2026-08-13T15:32:45+09:00*%
%TF.ProjectId,rear_node_board,72656172-5f6e-46f6-9465-5f626f617264,rev?*%
%TF.SameCoordinates,Original*%
%TF.FileFunction,Soldermask,Top*%
%TF.FilePolarity,Negative*%
%FSLAX46Y46*%
G04 Gerber Fmt 4.6, Leading zero omitted, Abs format (unit mm)*
G04 Created by KiCad (PCBNEW 10.0.5) date 2026-08-13 15:32:45*
%MOMM*%
%LPD*%
G01*
G04 APERTURE LIST*
G04 Aperture macros list*
%AMRoundRect*
0 Rectangle with rounded corners*
0 $1 Rounding radius*
0 $2 $3 $4 $5 $6 $7 $8 $9 X,Y pos of 4 corners*
0 Add a 4 corners polygon primitive as box body*
4,1,4,$2,$3,$4,$5,$6,$7,$8,$9,$2,$3,0*
0 Add four circle primitives for the rounded corners*
1,1,$1+$1,$2,$3*
1,1,$1+$1,$4,$5*
1,1,$1+$1,$6,$7*
1,1,$1+$1,$8,$9*
0 Add four rect primitives between the rounded corners*
20,1,$1+$1,$2,$3,$4,$5,0*
20,1,$1+$1,$4,$5,$6,$7,0*
20,1,$1+$1,$6,$7,$8,$9,0*
20,1,$1+$1,$8,$9,$2,$3,0*%
G04 Aperture macros list end*
%ADD10RoundRect,0.250000X-0.450000X0.262500X-0.450000X-0.262500X0.450000X-0.262500X0.450000X0.262500X0*%
%ADD11RoundRect,0.250000X0.325000X0.650000X-0.325000X0.650000X-0.325000X-0.650000X0.325000X-0.650000X0*%
%ADD12RoundRect,0.250000X0.650000X-0.325000X0.650000X0.325000X-0.650000X0.325000X-0.650000X-0.325000X0*%
%ADD13RoundRect,0.250000X-0.650000X0.325000X-0.650000X-0.325000X0.650000X-0.325000X0.650000X0.325000X0*%
%ADD14RoundRect,0.177000X-0.910000X-0.225000X0.910000X-0.225000X0.910000X0.225000X-0.910000X0.225000X0*%
%ADD15RoundRect,0.250000X-0.550000X1.050000X-0.550000X-1.050000X0.550000X-1.050000X0.550000X1.050000X0*%
%ADD16RoundRect,0.250000X-1.050000X-0.550000X1.050000X-0.550000X1.050000X0.550000X-1.050000X0.550000X0*%
%ADD17RoundRect,0.250000X0.262500X0.450000X-0.262500X0.450000X-0.262500X-0.450000X0.262500X-0.450000X0*%
%ADD18C,1.700000*%
%ADD19R,1.700000X1.700000*%
%ADD20R,1.500000X1.500000*%
%ADD21C,1.500000*%
%ADD22RoundRect,0.250000X-0.262500X-0.450000X0.262500X-0.450000X0.262500X0.450000X-0.262500X0.450000X0*%
%ADD23RoundRect,0.250000X0.450000X-0.262500X0.450000X0.262500X-0.450000X0.262500X-0.450000X-0.262500X0*%
%ADD24RoundRect,0.075000X-0.700000X-0.075000X0.700000X-0.075000X0.700000X0.075000X-0.700000X0.075000X0*%
%ADD25RoundRect,0.075000X-0.075000X-0.700000X0.075000X-0.700000X0.075000X0.700000X-0.075000X0.700000X0*%
%ADD26RoundRect,0.250000X-1.050000X1.050000X-1.050000X-1.050000X1.050000X-1.050000X1.050000X1.050000X0*%
%ADD27C,2.600000*%
%ADD28RoundRect,0.250000X-0.325000X-0.650000X0.325000X-0.650000X0.325000X0.650000X-0.325000X0.650000X0*%
%ADD29RoundRect,0.250000X1.050000X0.550000X-1.050000X0.550000X-1.050000X-0.550000X1.050000X-0.550000X0*%
%ADD30R,1.800000X1.800000*%
%ADD31C,1.800000*%
%ADD32RoundRect,0.225000X0.225000X0.250000X-0.225000X0.250000X-0.225000X-0.250000X0.225000X-0.250000X0*%
%ADD33C,2.000000*%
%ADD34RoundRect,0.225000X-0.225000X-0.250000X0.225000X-0.250000X0.225000X0.250000X-0.225000X0.250000X0*%
%ADD35RoundRect,0.102000X-0.625000X0.800000X-0.625000X-0.800000X0.625000X-0.800000X0.625000X0.800000X0*%
%ADD36RoundRect,0.375000X-0.625000X-0.375000X0.625000X-0.375000X0.625000X0.375000X-0.625000X0.375000X0*%
%ADD37RoundRect,0.500000X-0.500000X-1.400000X0.500000X-1.400000X0.500000X1.400000X-0.500000X1.400000X0*%
G04 APERTURE END LIST*
D10*
%TO.C,R28*%
X208575000Y-133492500D03*
X208575000Y-135317500D03*
%TD*%
D11*
%TO.C,C30*%
X217100000Y-142350000D03*
X214150000Y-142350000D03*
%TD*%
D12*
%TO.C,C12*%
X226700000Y-104275000D03*
X226700000Y-101325000D03*
%TD*%
D13*
%TO.C,C32*%
X142900000Y-121950000D03*
X142900000Y-124900000D03*
%TD*%
D12*
%TO.C,C29*%
X225150000Y-120125000D03*
X225150000Y-117175000D03*
%TD*%
D13*
%TO.C,C10*%
X146100000Y-110950000D03*
X146100000Y-113900000D03*
%TD*%
D12*
%TO.C,C5*%
X145550000Y-134225000D03*
X145550000Y-137175000D03*
%TD*%
D14*
%TO.C,U13*%
X151000000Y-117190000D03*
X151000000Y-118460000D03*
X151000000Y-119730000D03*
X151000000Y-121000000D03*
X146060000Y-121000000D03*
X146060000Y-119730000D03*
X146060000Y-118460000D03*
X146060000Y-117190000D03*
%TD*%
D13*
%TO.C,C3*%
X217600000Y-149925000D03*
X217600000Y-152875000D03*
%TD*%
D15*
%TO.C,C21*%
X223800000Y-157400000D03*
X223800000Y-153800000D03*
%TD*%
D12*
%TO.C,C16*%
X227300000Y-138225000D03*
X227300000Y-141175000D03*
%TD*%
%TO.C,C15*%
X229550000Y-132925000D03*
X229550000Y-135875000D03*
%TD*%
D15*
%TO.C,C22*%
X238900000Y-157650000D03*
X238900000Y-154050000D03*
%TD*%
D16*
%TO.C,C9*%
X158300000Y-156550000D03*
X161900000Y-156550000D03*
%TD*%
D17*
%TO.C,R22*%
X253200000Y-153180000D03*
X255025000Y-153180000D03*
%TD*%
%TO.C,R23*%
X253175000Y-156300000D03*
X255000000Y-156300000D03*
%TD*%
%TO.C,R24*%
X253200000Y-159080000D03*
X255025000Y-159080000D03*
%TD*%
%TO.C,R19*%
X253200000Y-144180000D03*
X255025000Y-144180000D03*
%TD*%
D18*
%TO.C,front2*%
X260100000Y-145370000D03*
X260100000Y-147910000D03*
X260100000Y-150450000D03*
X260100000Y-152990000D03*
X260100000Y-155530000D03*
D19*
X260100000Y-158070000D03*
%TD*%
D17*
%TO.C,R20*%
X253200000Y-146930000D03*
X255025000Y-146930000D03*
%TD*%
%TO.C,R21*%
X253200000Y-150230000D03*
X255025000Y-150230000D03*
%TD*%
D11*
%TO.C,C31*%
X197350000Y-147000000D03*
X200300000Y-147000000D03*
%TD*%
D20*
%TO.C,VR1*%
X118600000Y-103150000D03*
D21*
X121100000Y-100650000D03*
X123600000Y-103150000D03*
%TD*%
D22*
%TO.C,R29*%
X120475000Y-89250000D03*
X122300000Y-89250000D03*
%TD*%
D19*
%TO.C,DHT1*%
X99035000Y-125500000D03*
D18*
X101575000Y-125500000D03*
X104115000Y-125500000D03*
%TD*%
D19*
%TO.C,ADC_BRAKE1*%
X132050000Y-81025000D03*
D18*
X132050000Y-83565000D03*
%TD*%
D19*
%TO.C,ACCEL1*%
X118400000Y-80725000D03*
D18*
X118400000Y-83265000D03*
%TD*%
D12*
%TO.C,C11*%
X155150000Y-137550000D03*
X155150000Y-134600000D03*
%TD*%
D22*
%TO.C,R2*%
X163500000Y-139000000D03*
X165325000Y-139000000D03*
%TD*%
%TO.C,R15*%
X213500000Y-88500000D03*
X215325000Y-88500000D03*
%TD*%
%TO.C,R10*%
X268175000Y-87500000D03*
X270000000Y-87500000D03*
%TD*%
D14*
%TO.C,U11*%
X232030000Y-117595000D03*
X232030000Y-118865000D03*
X232030000Y-120135000D03*
X232030000Y-121405000D03*
X236970000Y-121405000D03*
X236970000Y-120135000D03*
X236970000Y-118865000D03*
X236970000Y-117595000D03*
%TD*%
D19*
%TO.C,J6*%
X190100000Y-104325000D03*
D18*
X190100000Y-106865000D03*
X190100000Y-109405000D03*
X190100000Y-111945000D03*
X190100000Y-114485000D03*
X190100000Y-117025000D03*
%TD*%
D14*
%TO.C,U10*%
X233060000Y-99690000D03*
X233060000Y-100960000D03*
X233060000Y-102230000D03*
X233060000Y-103500000D03*
X238000000Y-103500000D03*
X238000000Y-102230000D03*
X238000000Y-100960000D03*
X238000000Y-99690000D03*
%TD*%
D13*
%TO.C,C18*%
X243650000Y-151050000D03*
X243650000Y-154000000D03*
%TD*%
%TO.C,C17*%
X233050000Y-153550000D03*
X233050000Y-156500000D03*
%TD*%
D19*
%TO.C,J8*%
X113500000Y-144000000D03*
D18*
X113500000Y-146540000D03*
X113500000Y-149080000D03*
%TD*%
D22*
%TO.C,R7*%
X150950000Y-156450000D03*
X152775000Y-156450000D03*
%TD*%
D23*
%TO.C,R14*%
X103762500Y-83337500D03*
X103762500Y-81512500D03*
%TD*%
D16*
%TO.C,C1*%
X87700000Y-176500000D03*
X91300000Y-176500000D03*
%TD*%
D19*
%TO.C,J5*%
X151500000Y-81000000D03*
D18*
X151500000Y-83540000D03*
X151500000Y-86080000D03*
%TD*%
D19*
%TO.C,J7*%
X207875000Y-104300000D03*
D18*
X207875000Y-106840000D03*
X207875000Y-109380000D03*
X207875000Y-111920000D03*
X207875000Y-114460000D03*
X207875000Y-117000000D03*
%TD*%
D19*
%TO.C,J2*%
X75500000Y-86460000D03*
D18*
X75500000Y-89000000D03*
X75500000Y-91540000D03*
X75500000Y-94080000D03*
X75500000Y-96620000D03*
X75500000Y-99160000D03*
%TD*%
D14*
%TO.C,U12*%
X149230000Y-105200000D03*
X149230000Y-106470000D03*
X149230000Y-107740000D03*
X149230000Y-109010000D03*
X154170000Y-109010000D03*
X154170000Y-107740000D03*
X154170000Y-106470000D03*
X154170000Y-105200000D03*
%TD*%
D19*
%TO.C,J11*%
X207690000Y-79500000D03*
D18*
X210230000Y-79500000D03*
X212770000Y-79500000D03*
X215310000Y-79500000D03*
%TD*%
D24*
%TO.C,U7*%
X230150000Y-141000000D03*
X230150000Y-141500000D03*
X230150000Y-142000000D03*
X230150000Y-142500000D03*
X230150000Y-143000000D03*
X230150000Y-143500000D03*
X230150000Y-144000000D03*
X230150000Y-144500000D03*
X230150000Y-145000000D03*
X230150000Y-145500000D03*
X230150000Y-146000000D03*
X230150000Y-146500000D03*
X230150000Y-147000000D03*
X230150000Y-147500000D03*
X230150000Y-148000000D03*
X230150000Y-148500000D03*
D25*
X232075000Y-150425000D03*
X232575000Y-150425000D03*
X233075000Y-150425000D03*
X233575000Y-150425000D03*
X234075000Y-150425000D03*
X234575000Y-150425000D03*
X235075000Y-150425000D03*
X235575000Y-150425000D03*
X236075000Y-150425000D03*
X236575000Y-150425000D03*
X237075000Y-150425000D03*
X237575000Y-150425000D03*
X238075000Y-150425000D03*
X238575000Y-150425000D03*
X239075000Y-150425000D03*
X239575000Y-150425000D03*
D24*
X241500000Y-148500000D03*
X241500000Y-148000000D03*
X241500000Y-147500000D03*
X241500000Y-147000000D03*
X241500000Y-146500000D03*
X241500000Y-146000000D03*
X241500000Y-145500000D03*
X241500000Y-145000000D03*
X241500000Y-144500000D03*
X241500000Y-144000000D03*
X241500000Y-143500000D03*
X241500000Y-143000000D03*
X241500000Y-142500000D03*
X241500000Y-142000000D03*
X241500000Y-141500000D03*
X241500000Y-141000000D03*
D25*
X239575000Y-139075000D03*
X239075000Y-139075000D03*
X238575000Y-139075000D03*
X238075000Y-139075000D03*
X237575000Y-139075000D03*
X237075000Y-139075000D03*
X236575000Y-139075000D03*
X236075000Y-139075000D03*
X235575000Y-139075000D03*
X235075000Y-139075000D03*
X234575000Y-139075000D03*
X234075000Y-139075000D03*
X233575000Y-139075000D03*
X233075000Y-139075000D03*
X232575000Y-139075000D03*
X232075000Y-139075000D03*
%TD*%
D22*
%TO.C,R13*%
X268500000Y-131000000D03*
X270325000Y-131000000D03*
%TD*%
D13*
%TO.C,C7*%
X146600000Y-154775000D03*
X146600000Y-157725000D03*
%TD*%
D22*
%TO.C,R12*%
X268000000Y-117000000D03*
X269825000Y-117000000D03*
%TD*%
D26*
%TO.C,J1*%
X75327500Y-173455000D03*
D27*
X75327500Y-178535000D03*
%TD*%
D22*
%TO.C,R3*%
X234025000Y-135000000D03*
X235850000Y-135000000D03*
%TD*%
D11*
%TO.C,C24*%
X224500000Y-147400000D03*
X221550000Y-147400000D03*
%TD*%
D28*
%TO.C,C8*%
X155950000Y-152400000D03*
X158900000Y-152400000D03*
%TD*%
D22*
%TO.C,R9*%
X238675000Y-78000000D03*
X240500000Y-78000000D03*
%TD*%
D10*
%TO.C,R6*%
X244500000Y-100587500D03*
X244500000Y-102412500D03*
%TD*%
D29*
%TO.C,C14*%
X138600000Y-163750000D03*
X135000000Y-163750000D03*
%TD*%
D19*
%TO.C,J3*%
X75500000Y-110150000D03*
D18*
X75500000Y-112690000D03*
X75500000Y-115230000D03*
X75500000Y-117770000D03*
X75500000Y-120310000D03*
X75500000Y-122850000D03*
%TD*%
D22*
%TO.C,FB1*%
X137050000Y-156150000D03*
X138875000Y-156150000D03*
%TD*%
D30*
%TO.C,D3*%
X267960000Y-95000000D03*
D31*
X270500000Y-95000000D03*
%TD*%
D32*
%TO.C,C20*%
X227950000Y-151850000D03*
X226400000Y-151850000D03*
%TD*%
D23*
%TO.C,R8*%
X220087500Y-143912500D03*
X220087500Y-142087500D03*
%TD*%
D22*
%TO.C,R1*%
X206175000Y-88500000D03*
X208000000Y-88500000D03*
%TD*%
D30*
%TO.C,D5*%
X267960000Y-124500000D03*
D31*
X270500000Y-124500000D03*
%TD*%
D19*
%TO.C,J4*%
X75500000Y-132960000D03*
D18*
X75500000Y-135500000D03*
X75500000Y-138040000D03*
X75500000Y-140580000D03*
X75500000Y-143120000D03*
X75500000Y-145660000D03*
%TD*%
D11*
%TO.C,C6*%
X141050000Y-138500000D03*
X138100000Y-138500000D03*
%TD*%
D22*
%TO.C,FB2*%
X226237500Y-149800000D03*
X228062500Y-149800000D03*
%TD*%
D16*
%TO.C,C4*%
X119000000Y-176500000D03*
X122600000Y-176500000D03*
%TD*%
D30*
%TO.C,D2*%
X267460000Y-80000000D03*
D31*
X270000000Y-80000000D03*
%TD*%
D30*
%TO.C,D4*%
X267960000Y-110000000D03*
D31*
X270500000Y-110000000D03*
%TD*%
D11*
%TO.C,C23*%
X222225000Y-137500000D03*
X219275000Y-137500000D03*
%TD*%
D19*
%TO.C,J9*%
X269500000Y-143960000D03*
D18*
X269500000Y-146500000D03*
X269500000Y-149040000D03*
%TD*%
D12*
%TO.C,C19*%
X246950000Y-141000000D03*
X246950000Y-138050000D03*
%TD*%
D32*
%TO.C,C13*%
X138600000Y-158850000D03*
X137050000Y-158850000D03*
%TD*%
D22*
%TO.C,R11*%
X268000000Y-102000000D03*
X269825000Y-102000000D03*
%TD*%
D23*
%TO.C,R4*%
X158912500Y-119412500D03*
X158912500Y-117587500D03*
%TD*%
D33*
%TO.C,SW1*%
X247500000Y-78000000D03*
X254000000Y-78000000D03*
X247500000Y-82500000D03*
X254000000Y-82500000D03*
%TD*%
D19*
%TO.C,J10*%
X75500000Y-155000000D03*
D18*
X75500000Y-157540000D03*
X75500000Y-160080000D03*
%TD*%
D34*
%TO.C,C25*%
X238950000Y-83000000D03*
X240500000Y-83000000D03*
%TD*%
D28*
%TO.C,C2*%
X130950000Y-147400000D03*
X133900000Y-147400000D03*
%TD*%
D35*
%TO.C,Y3*%
X222300000Y-140850000D03*
X222300000Y-144550000D03*
X224500000Y-144550000D03*
X224500000Y-140850000D03*
%TD*%
D36*
%TO.C,U1*%
X100700000Y-174200000D03*
X100700000Y-176500000D03*
D37*
X107000000Y-176500000D03*
D36*
X100700000Y-178800000D03*
%TD*%
D30*
%TO.C,D1*%
X91635000Y-82425000D03*
D31*
X94175000Y-82425000D03*
%TD*%
D10*
%TO.C,R5*%
X244500000Y-118587500D03*
X244500000Y-120412500D03*
%TD*%
D11*
%TO.C,C27*%
X136425000Y-153050000D03*
X139375000Y-153050000D03*
%TD*%
D35*
%TO.C,Y4*%
X139300000Y-146000000D03*
X139300000Y-149700000D03*
X137100000Y-149700000D03*
X137100000Y-146000000D03*
%TD*%
D28*
%TO.C,C26*%
X139925000Y-142850000D03*
X136975000Y-142850000D03*
%TD*%
D24*
%TO.C,U4*%
X143650000Y-142500000D03*
X143650000Y-143000000D03*
X143650000Y-143500000D03*
X143650000Y-144000000D03*
X143650000Y-144500000D03*
X143650000Y-145000000D03*
X143650000Y-145500000D03*
X143650000Y-146000000D03*
X143650000Y-146500000D03*
X143650000Y-147000000D03*
X143650000Y-147500000D03*
X143650000Y-148000000D03*
X143650000Y-148500000D03*
X143650000Y-149000000D03*
X143650000Y-149500000D03*
X143650000Y-150000000D03*
D25*
X145575000Y-151925000D03*
X146075000Y-151925000D03*
X146575000Y-151925000D03*
X147075000Y-151925000D03*
X147575000Y-151925000D03*
X148075000Y-151925000D03*
X148575000Y-151925000D03*
X149075000Y-151925000D03*
X149575000Y-151925000D03*
X150075000Y-151925000D03*
X150575000Y-151925000D03*
X151075000Y-151925000D03*
X151575000Y-151925000D03*
X152075000Y-151925000D03*
X152575000Y-151925000D03*
X153075000Y-151925000D03*
D24*
X155000000Y-150000000D03*
X155000000Y-149500000D03*
X155000000Y-149000000D03*
X155000000Y-148500000D03*
X155000000Y-148000000D03*
X155000000Y-147500000D03*
X155000000Y-147000000D03*
X155000000Y-146500000D03*
X155000000Y-146000000D03*
X155000000Y-145500000D03*
X155000000Y-145000000D03*
X155000000Y-144500000D03*
X155000000Y-144000000D03*
X155000000Y-143500000D03*
X155000000Y-143000000D03*
X155000000Y-142500000D03*
D25*
X153075000Y-140575000D03*
X152575000Y-140575000D03*
X152075000Y-140575000D03*
X151575000Y-140575000D03*
X151075000Y-140575000D03*
X150575000Y-140575000D03*
X150075000Y-140575000D03*
X149575000Y-140575000D03*
X149075000Y-140575000D03*
X148575000Y-140575000D03*
X148075000Y-140575000D03*
X147575000Y-140575000D03*
X147075000Y-140575000D03*
X146575000Y-140575000D03*
X146075000Y-140575000D03*
X145575000Y-140575000D03*
%TD*%
D12*
%TO.C,C28*%
X213850000Y-136475000D03*
X213850000Y-139425000D03*
%TD*%
M02*
